<svg width="24" height="24" viewBox="0 0 24 24" fill="none" xmlns="http://www.w3.org/2000/svg">
<path d="M12 15C14.2091 15 16 13.2091 16 11C16 8.79086 14.2091 7 12 7C9.79086 7 8 8.79086 8 11C8 13.2091 9.79086 15 12 15Z" stroke="#6B23E0" stroke-width="1.5" stroke-linecap="round" stroke-linejoin="round"/>
<path d="M14.17 14.35C13.5256 14.7737 12.7713 14.9995 12 14.9995C11.2288 14.9995 10.4745 14.7737 9.83005 14.35C8.8778 14.6593 8.00298 15.1693 7.26464 15.8455C6.5263 16.5218 5.94161 17.3485 5.55005 18.27C6.38126 19.124 7.37381 19.8044 8.47008 20.2718C9.56636 20.7391 10.7445 20.9841 11.9362 20.9924C13.1279 21.0008 14.3094 20.7724 15.4122 20.3205C16.5149 19.8686 17.5169 19.2022 18.36 18.36L18.45 18.27C18.0585 17.3485 17.4738 16.5218 16.7355 15.8455C15.9971 15.1693 15.1223 14.6593 14.17 14.35V14.35Z" stroke="#6B23E0" stroke-width="1.5" stroke-linecap="round" stroke-linejoin="round"/>
<path d="M21 12C21 7.02944 16.9706 3 12 3C7.02944 3 3 7.02944 3 12C3 16.9706 7.02944 21 12 21C16.9706 21 21 16.9706 21 12Z" stroke="#E21186" stroke-width="1.5" stroke-linecap="round" stroke-linejoin="round"/>
</svg>
