<svg width="193" height="30" viewBox="0 0 193 30" fill="none" xmlns="http://www.w3.org/2000/svg">
<path d="M0 22.1238H4.76737C5.02476 22.1238 5.2626 21.9865 5.39129 21.7636L6.71915 19.4636L4.12749 14.9748L0 22.1238Z" fill="url(#paint0_linear_59_1063)"/>
<path d="M20.1551 21.7636C20.2838 21.9865 20.5216 22.1238 20.779 22.1238L25.5463 22.1238L21.448 15.0252L18.8563 19.5141L20.1551 21.7636Z" fill="url(#paint1_linear_59_1063)"/>
<path d="M16.2647 15.0252L12.8023 21.0222L9.31081 14.9748L6.71915 19.4636L12.8023 30L18.8563 19.5141L16.2647 15.0252Z" fill="url(#paint2_linear_59_1063)"/>
<path d="M12.7732 8.97777L16.2647 15.0252L18.8563 10.5364L12.7732 0L6.71915 10.4859L9.31081 14.9748L12.7732 8.97777Z" fill="url(#paint3_linear_59_1063)"/>
<path d="M5.42044 8.23643C5.29174 8.01353 5.05391 7.87621 4.79652 7.87621H0.0291486L4.12749 14.9748L6.71915 10.4859L5.42044 8.23643Z" fill="url(#paint4_linear_59_1063)"/>
<path d="M25.5755 7.87621H20.8081C20.5507 7.87621 20.3129 8.01353 20.1842 8.23643L18.8563 10.5364L21.448 15.0252L25.5755 7.87621Z" fill="url(#paint5_linear_59_1063)"/>
<path d="M16.2647 15.0252L18.8563 19.5141L21.448 15.0252L18.8563 10.5364L16.2647 15.0252Z" fill="url(#paint6_linear_59_1063)"/>
<path d="M6.71915 10.4859L4.12749 14.9748L6.71915 19.4636L9.31081 14.9748L6.71915 10.4859Z" fill="url(#paint7_linear_59_1063)"/>
<path d="M12.8023 21.0222L16.2647 15.0252L12.7732 8.97777L9.31081 14.9748L12.8023 21.0222Z" fill="url(#paint8_linear_59_1063)"/>
<path d="M13.4679 17.3961C13.5029 17.4533 13.5032 17.5252 13.4687 17.5827L12.8252 18.6551L9.87186 13.6999L10.5318 12.5922L13.4679 17.3961Z" fill="url(#paint9_linear_59_1063)"/>
<path d="M15.5653 16.3815L14.8272 17.5474L11.8342 12.7088L12.4998 11.5825C12.5414 11.512 12.6433 11.5116 12.6855 11.5818L15.5653 16.3815Z" fill="url(#paint10_linear_59_1063)"/>
<path d="M37.0971 18.9503L32.1356 4.96053H36.9345L39.7406 14.3142H39.8219L42.6483 4.96053H47.2438L42.3026 18.9503H37.0971ZM57.3433 18.9503L56.7536 16.9779H51.8531L51.2634 18.9503H46.6679L51.7718 4.96053H56.9976L62.1014 18.9503H57.3433ZM52.7885 13.8465H55.8182L54.3542 8.86466H54.2728L52.7885 13.8465ZM69.6722 4.71653C71.4616 4.71653 72.9324 5.08254 74.0847 5.81456C75.2369 6.53303 75.8266 7.60395 75.8537 9.02733V9.27134H71.6446V9.19C71.6446 8.78332 71.4955 8.44442 71.1972 8.1733C70.899 7.90218 70.4449 7.76662 69.8349 7.76662C69.2384 7.76662 68.7775 7.85474 68.4521 8.03097C68.1404 8.20719 67.9845 8.42409 67.9845 8.68165C67.9845 9.04767 68.2014 9.31879 68.6351 9.49501C69.0689 9.67124 69.7671 9.85425 70.7295 10.044C71.8547 10.2745 72.7765 10.5185 73.495 10.7761C74.227 11.0201 74.8641 11.4267 75.4064 11.9961C75.9486 12.5654 76.2265 13.3381 76.2401 14.3142C76.2401 15.968 75.6775 17.1948 74.5523 17.9946C73.4407 18.7944 71.9496 19.1943 70.0789 19.1943C67.8963 19.1943 66.1951 18.8283 64.975 18.0963C63.7685 17.3643 63.1653 16.0697 63.1653 14.2125H67.4151C67.4151 14.9174 67.5981 15.3919 67.9641 15.6359C68.3301 15.8663 68.8995 15.9816 69.6722 15.9816C70.2415 15.9816 70.7092 15.9206 71.0752 15.7985C71.4548 15.6765 71.6446 15.4258 71.6446 15.0462C71.6446 14.7073 71.4345 14.4565 71.0142 14.2938C70.6075 14.1176 69.9365 13.9346 69.0012 13.7448C67.8625 13.5008 66.9203 13.25 66.1747 12.9925C65.4292 12.7213 64.7785 12.2808 64.2227 11.6708C63.6669 11.0607 63.389 10.2338 63.389 9.19C63.389 7.65818 63.9787 6.53303 65.158 5.81456C66.351 5.08254 67.8557 4.71653 69.6722 4.71653ZM91.9112 4.71653C93.9853 4.71653 95.6255 5.23843 96.832 6.28224C98.0385 7.3125 98.6418 8.7901 98.6418 10.7151H94.3513C94.3513 9.90169 94.1344 9.25778 93.7006 8.78332C93.2804 8.30886 92.6771 8.07163 91.8909 8.07163C90.9826 8.07163 90.3116 8.35631 89.8778 8.92566C89.4576 9.49501 89.2475 10.288 89.2475 11.3047V12.6061C89.2475 13.6093 89.4576 14.4023 89.8778 14.9852C90.3116 15.5545 90.9691 15.8392 91.8502 15.8392C92.7178 15.8392 93.3753 15.6155 93.8226 15.1682C94.2699 14.7208 94.4936 14.0905 94.4936 13.2771H98.6418C98.6418 15.1885 98.0521 16.6526 96.8727 17.6693C95.7069 18.686 94.0531 19.1943 91.9112 19.1943C89.5254 19.1943 87.7156 18.5843 86.482 17.3643C85.262 16.1442 84.652 14.3413 84.652 11.9554C84.652 9.56957 85.262 7.76662 86.482 6.54659C87.7156 5.32655 89.5254 4.71653 91.9112 4.71653ZM110.442 18.9503L109.852 16.9779H104.952L104.362 18.9503H99.7666L104.87 4.96053H110.096L115.2 18.9503H110.442ZM105.887 13.8465H108.917L107.453 8.86466H107.372L105.887 13.8465ZM130.172 9.25101C130.172 10.105 129.942 10.8777 129.481 11.5691C129.02 12.2604 128.349 12.7688 127.468 13.0941L130.579 18.9503H125.536L123.056 13.8465H121.388V18.9503H116.894V4.96053H125.455C126.458 4.96053 127.312 5.1571 128.017 5.55022C128.736 5.92979 129.271 6.45169 129.623 7.11594C129.989 7.76662 130.172 8.47831 130.172 9.25101ZM125.597 9.43401C125.597 9.068 125.475 8.76299 125.231 8.51898C124.987 8.27497 124.689 8.15297 124.337 8.15297H121.388V10.7354H124.337C124.689 10.7354 124.987 10.6134 125.231 10.3694C125.475 10.1118 125.597 9.80002 125.597 9.43401ZM132.721 4.96053H144.819V8.31564H137.215V10.2474H143.721V13.4601H137.215V15.5952H144.962V18.9503H132.721V4.96053ZM147.395 4.96053H159.494V8.31564H151.889V10.2474H158.396V13.4601H151.889V15.5952H159.636V18.9503H147.395V4.96053ZM175.348 9.25101C175.348 10.105 175.118 10.8777 174.657 11.5691C174.196 12.2604 173.525 12.7688 172.644 13.0941L175.755 18.9503H170.712L168.231 13.8465H166.564V18.9503H162.07V4.96053H170.631C171.634 4.96053 172.488 5.1571 173.193 5.55022C173.911 5.92979 174.447 6.45169 174.799 7.11594C175.165 7.76662 175.348 8.47831 175.348 9.25101ZM170.773 9.43401C170.773 9.068 170.651 8.76299 170.407 8.51898C170.163 8.27497 169.865 8.15297 169.512 8.15297H166.564V10.7354H169.512C169.865 10.7354 170.163 10.6134 170.407 10.3694C170.651 10.1118 170.773 9.80002 170.773 9.43401ZM183.773 4.71653C185.562 4.71653 187.033 5.08254 188.185 5.81456C189.338 6.53303 189.927 7.60395 189.954 9.02733V9.27134H185.745V9.19C185.745 8.78332 185.596 8.44442 185.298 8.1733C185 7.90218 184.546 7.76662 183.936 7.76662C183.339 7.76662 182.878 7.85474 182.553 8.03097C182.241 8.20719 182.085 8.42409 182.085 8.68165C182.085 9.04767 182.302 9.31879 182.736 9.49501C183.17 9.67124 183.868 9.85425 184.83 10.044C185.955 10.2745 186.877 10.5185 187.596 10.7761C188.328 11.0201 188.965 11.4267 189.507 11.9961C190.049 12.5654 190.327 13.3381 190.341 14.3142C190.341 15.968 189.778 17.1948 188.653 17.9946C187.541 18.7944 186.05 19.1943 184.18 19.1943C181.997 19.1943 180.296 18.8283 179.076 18.0963C177.869 17.3643 177.266 16.0697 177.266 14.2125H181.516C181.516 14.9174 181.699 15.3919 182.065 15.6359C182.431 15.8663 183 15.9816 183.773 15.9816C184.342 15.9816 184.81 15.9206 185.176 15.7985C185.555 15.6765 185.745 15.4258 185.745 15.0462C185.745 14.7073 185.535 14.4565 185.115 14.2938C184.708 14.1176 184.037 13.9346 183.102 13.7448C181.963 13.5008 181.021 13.25 180.275 12.9925C179.53 12.7213 178.879 12.2808 178.323 11.6708C177.768 11.0607 177.49 10.2338 177.49 9.19C177.49 7.65818 178.079 6.53303 179.259 5.81456C180.452 5.08254 181.956 4.71653 183.773 4.71653Z" fill="url(#paint11_linear_59_1063)"/>
<path d="M34.1588 28.1097C33.8021 28.1097 33.4971 28.0481 33.2438 27.9247C32.9904 27.7981 32.7971 27.6031 32.6638 27.3397C32.5338 27.0764 32.4688 26.7414 32.4688 26.3347C32.4688 25.7347 32.6154 25.2897 32.9088 24.9997C33.2054 24.7064 33.6221 24.5597 34.1588 24.5597C34.4521 24.5597 34.7154 24.6097 34.9488 24.7097C35.1821 24.8097 35.3654 24.9597 35.4988 25.1597C35.6354 25.3597 35.7038 25.6114 35.7038 25.9147H34.9538C34.9538 25.7547 34.9204 25.6197 34.8538 25.5097C34.7904 25.3997 34.6988 25.3164 34.5788 25.2597C34.4621 25.1997 34.3254 25.1697 34.1688 25.1697C33.9554 25.1697 33.7788 25.2114 33.6388 25.2947C33.5021 25.3781 33.4004 25.5014 33.3338 25.6647C33.2704 25.8247 33.2388 26.0214 33.2388 26.2547V26.4097C33.2388 26.6497 33.2721 26.8514 33.3388 27.0147C33.4054 27.1747 33.5054 27.2964 33.6388 27.3797C33.7754 27.4597 33.9504 27.4997 34.1638 27.4997C34.3304 27.4997 34.4754 27.4714 34.5988 27.4147C34.7221 27.3581 34.8171 27.2747 34.8838 27.1647C34.9504 27.0547 34.9838 26.9197 34.9838 26.7597H35.7038C35.7038 27.0631 35.6371 27.3147 35.5038 27.5147C35.3738 27.7147 35.1921 27.8647 34.9588 27.9647C34.7254 28.0614 34.4588 28.1097 34.1588 28.1097ZM37.8908 28.1097C37.5274 28.1097 37.2141 28.0447 36.9508 27.9147C36.6874 27.7847 36.4858 27.5881 36.3458 27.3247C36.2058 27.0614 36.1358 26.7314 36.1358 26.3347C36.1358 25.9314 36.2058 25.5997 36.3458 25.3397C36.4858 25.0764 36.6874 24.8814 36.9508 24.7547C37.2141 24.6247 37.5274 24.5597 37.8908 24.5597C38.2608 24.5597 38.5758 24.6247 38.8358 24.7547C39.0991 24.8814 39.3008 25.0764 39.4408 25.3397C39.5808 25.5997 39.6508 25.9314 39.6508 26.3347C39.6508 26.7314 39.5808 27.0614 39.4408 27.3247C39.3008 27.5881 39.0991 27.7847 38.8358 27.9147C38.5758 28.0447 38.2608 28.1097 37.8908 28.1097ZM37.8908 27.4997C38.0541 27.4997 38.1974 27.4764 38.3208 27.4297C38.4441 27.3831 38.5474 27.3131 38.6308 27.2197C38.7141 27.1264 38.7774 27.0131 38.8208 26.8797C38.8641 26.7431 38.8858 26.5881 38.8858 26.4147V26.2597C38.8858 26.0831 38.8641 25.9264 38.8208 25.7897C38.7774 25.6531 38.7141 25.5397 38.6308 25.4497C38.5474 25.3564 38.4441 25.2864 38.3208 25.2397C38.1974 25.1931 38.0541 25.1697 37.8908 25.1697C37.7308 25.1697 37.5891 25.1931 37.4658 25.2397C37.3424 25.2864 37.2391 25.3564 37.1558 25.4497C37.0724 25.5397 37.0091 25.6531 36.9658 25.7897C36.9258 25.9264 36.9058 26.0831 36.9058 26.2597V26.4147C36.9058 26.5881 36.9258 26.7431 36.9658 26.8797C37.0091 27.0131 37.0724 27.1264 37.1558 27.2197C37.2391 27.3131 37.3424 27.3831 37.4658 27.4297C37.5891 27.4764 37.7308 27.4997 37.8908 27.4997ZM41.7406 28.1097C41.4273 28.1097 41.1573 28.0597 40.9306 27.9597C40.7073 27.8597 40.5356 27.7097 40.4156 27.5097C40.2956 27.3064 40.2356 27.0547 40.2356 26.7547V24.6197H40.9856V26.7347C40.9856 26.9814 41.0506 27.1714 41.1806 27.3047C41.3106 27.4347 41.4973 27.4997 41.7406 27.4997C41.9839 27.4997 42.1706 27.4347 42.3006 27.3047C42.4339 27.1714 42.5006 26.9814 42.5006 26.7347V24.6197H43.2506V26.7547C43.2506 27.0547 43.1906 27.3064 43.0706 27.5097C42.9506 27.7097 42.7773 27.8597 42.5506 27.9597C42.3273 28.0597 42.0573 28.1097 41.7406 28.1097ZM43.9958 28.0497V24.6197H44.6808L46.0608 26.4697C46.0808 26.4931 46.1058 26.5264 46.1358 26.5697C46.1658 26.6097 46.1942 26.6497 46.2208 26.6897C46.2475 26.7297 46.2658 26.7614 46.2758 26.7847H46.3008C46.3008 26.7281 46.3008 26.6731 46.3008 26.6197C46.3008 26.5631 46.3008 26.5131 46.3008 26.4697V24.6197H47.0058V28.0497H46.3208L44.9108 26.1547C44.8775 26.1081 44.8425 26.0564 44.8058 25.9997C44.7692 25.9431 44.7425 25.8997 44.7258 25.8697H44.7008C44.7008 25.9197 44.7008 25.9697 44.7008 26.0197C44.7008 26.0664 44.7008 26.1114 44.7008 26.1547V28.0497H43.9958ZM49.1004 28.1097C48.9004 28.1097 48.7104 28.0897 48.5304 28.0497C48.3504 28.0097 48.1904 27.9464 48.0504 27.8597C47.9137 27.7697 47.8054 27.6581 47.7254 27.5247C47.6487 27.3881 47.6104 27.2231 47.6104 27.0297C47.6104 27.0131 47.6104 26.9964 47.6104 26.9797C47.6104 26.9597 47.612 26.9447 47.6154 26.9347H48.3554C48.352 26.9447 48.3504 26.9581 48.3504 26.9747C48.3504 26.9914 48.3504 27.0064 48.3504 27.0197C48.3504 27.1264 48.3787 27.2164 48.4354 27.2897C48.4954 27.3631 48.582 27.4181 48.6954 27.4547C48.8087 27.4914 48.9404 27.5097 49.0904 27.5097C49.187 27.5097 49.272 27.5047 49.3454 27.4947C49.422 27.4814 49.4887 27.4647 49.5454 27.4447C49.6054 27.4214 49.6537 27.3947 49.6904 27.3647C49.7304 27.3347 49.7587 27.2997 49.7754 27.2597C49.7954 27.2197 49.8054 27.1747 49.8054 27.1247C49.8054 27.0347 49.7754 26.9614 49.7154 26.9047C49.6587 26.8481 49.5787 26.7997 49.4754 26.7597C49.3754 26.7197 49.262 26.6831 49.1354 26.6497C49.0087 26.6164 48.8787 26.5831 48.7454 26.5497C48.612 26.5131 48.482 26.4697 48.3554 26.4197C48.2287 26.3664 48.1154 26.3031 48.0154 26.2297C47.9154 26.1564 47.8354 26.0631 47.7754 25.9497C47.7154 25.8364 47.6854 25.6997 47.6854 25.5397C47.6854 25.3697 47.7204 25.2231 47.7904 25.0997C47.8637 24.9764 47.9654 24.8747 48.0954 24.7947C48.2254 24.7147 48.3754 24.6564 48.5454 24.6197C48.7154 24.5797 48.9004 24.5597 49.1004 24.5597C49.287 24.5597 49.4637 24.5797 49.6304 24.6197C49.797 24.6564 49.9437 24.7164 50.0704 24.7997C50.197 24.8831 50.2954 24.9881 50.3654 25.1147C50.4387 25.2414 50.4754 25.3914 50.4754 25.5647V25.6247H49.7504V25.5847C49.7504 25.4947 49.7237 25.4181 49.6704 25.3547C49.617 25.2914 49.542 25.2414 49.4454 25.2047C49.3487 25.1681 49.2354 25.1497 49.1054 25.1497C48.9654 25.1497 48.8454 25.1631 48.7454 25.1897C48.6487 25.2164 48.5737 25.2564 48.5204 25.3097C48.4704 25.3597 48.4454 25.4197 48.4454 25.4897C48.4454 25.5697 48.4737 25.6364 48.5304 25.6897C48.5904 25.7397 48.6704 25.7847 48.7704 25.8247C48.8737 25.8614 48.9887 25.8947 49.1154 25.9247C49.242 25.9547 49.372 25.9881 49.5054 26.0247C49.6387 26.0614 49.7687 26.1047 49.8954 26.1547C50.022 26.2047 50.1354 26.2681 50.2354 26.3447C50.3354 26.4181 50.4154 26.5097 50.4754 26.6197C50.5354 26.7297 50.5654 26.8614 50.5654 27.0147C50.5654 27.2781 50.502 27.4897 50.3754 27.6497C50.2487 27.8097 50.0754 27.9264 49.8554 27.9997C49.6354 28.0731 49.3837 28.1097 49.1004 28.1097ZM51.1589 28.0497V24.6197H53.8989V25.2297H51.9089V25.9947H53.6689V26.5997H51.9089V27.4347H53.9289V28.0497H51.1589ZM54.572 28.0497V24.6197H55.317V27.4147H57.047V28.0497H54.572ZM57.5261 28.0497V24.6197H58.2711V27.4147H60.0011V28.0497H57.5261ZM60.4802 28.0497V24.6197H61.2252V28.0497H60.4802ZM61.9841 28.0497V24.6197H62.6691L64.0491 26.4697C64.0691 26.4931 64.0941 26.5264 64.1241 26.5697C64.1541 26.6097 64.1825 26.6497 64.2091 26.6897C64.2358 26.7297 64.2541 26.7614 64.2641 26.7847H64.2891C64.2891 26.7281 64.2891 26.6731 64.2891 26.6197C64.2891 26.5631 64.2891 26.5131 64.2891 26.4697V24.6197H64.9941V28.0497H64.3091L62.8991 26.1547C62.8658 26.1081 62.8308 26.0564 62.7941 25.9997C62.7575 25.9431 62.7308 25.8997 62.7141 25.8697H62.6891C62.6891 25.9197 62.6891 25.9697 62.6891 26.0197C62.6891 26.0664 62.6891 26.1114 62.6891 26.1547V28.0497H61.9841ZM67.3137 28.1097C66.7737 28.1097 66.357 27.9664 66.0637 27.6797C65.7737 27.3897 65.6287 26.9414 65.6287 26.3347C65.6287 25.9314 65.6987 25.5997 65.8387 25.3397C65.9787 25.0764 66.182 24.8814 66.4487 24.7547C66.7153 24.6247 67.0353 24.5597 67.4087 24.5597C67.632 24.5597 67.842 24.5847 68.0387 24.6347C68.2353 24.6847 68.4087 24.7614 68.5587 24.8647C68.712 24.9681 68.8303 25.0981 68.9137 25.2547C69.0003 25.4081 69.0437 25.5914 69.0437 25.8047H68.2887C68.2887 25.7014 68.2653 25.6097 68.2187 25.5297C68.1753 25.4497 68.1137 25.3831 68.0337 25.3297C67.9537 25.2764 67.862 25.2364 67.7587 25.2097C67.6553 25.1831 67.547 25.1697 67.4337 25.1697C67.2603 25.1697 67.1087 25.1931 66.9787 25.2397C66.8487 25.2831 66.7403 25.3514 66.6537 25.4447C66.5703 25.5347 66.507 25.6481 66.4637 25.7847C66.4203 25.9214 66.3987 26.0797 66.3987 26.2597V26.4097C66.3987 26.6597 66.4353 26.8647 66.5087 27.0247C66.582 27.1847 66.692 27.3047 66.8387 27.3847C66.9853 27.4614 67.167 27.4997 67.3837 27.4997C67.5637 27.4997 67.722 27.4731 67.8587 27.4197C67.9987 27.3631 68.107 27.2831 68.1837 27.1797C68.2637 27.0764 68.3037 26.9497 68.3037 26.7997V26.7647H67.2787V26.1947H69.0437V28.0497H68.5537L68.4887 27.6797C68.3887 27.7764 68.2803 27.8564 68.1637 27.9197C68.0503 27.9831 67.9237 28.0297 67.7837 28.0597C67.6437 28.0931 67.487 28.1097 67.3137 28.1097ZM70.7439 29.0297V24.4297H71.2489V29.0297H70.7439ZM74.525 28.1097C74.1683 28.1097 73.8633 28.0481 73.61 27.9247C73.3567 27.7981 73.1633 27.6031 73.03 27.3397C72.9 27.0764 72.835 26.7414 72.835 26.3347C72.835 25.7347 72.9817 25.2897 73.275 24.9997C73.5717 24.7064 73.9883 24.5597 74.525 24.5597C74.8183 24.5597 75.0817 24.6097 75.315 24.7097C75.5483 24.8097 75.7317 24.9597 75.865 25.1597C76.0017 25.3597 76.07 25.6114 76.07 25.9147H75.32C75.32 25.7547 75.2867 25.6197 75.22 25.5097C75.1567 25.3997 75.065 25.3164 74.945 25.2597C74.8283 25.1997 74.6917 25.1697 74.535 25.1697C74.3217 25.1697 74.145 25.2114 74.005 25.2947C73.8683 25.3781 73.7667 25.5014 73.7 25.6647C73.6367 25.8247 73.605 26.0214 73.605 26.2547V26.4097C73.605 26.6497 73.6383 26.8514 73.705 27.0147C73.7717 27.1747 73.8717 27.2964 74.005 27.3797C74.1417 27.4597 74.3167 27.4997 74.53 27.4997C74.6967 27.4997 74.8417 27.4714 74.965 27.4147C75.0883 27.3581 75.1833 27.2747 75.25 27.1647C75.3167 27.0547 75.35 26.9197 75.35 26.7597H76.07C76.07 27.0631 76.0033 27.3147 75.87 27.5147C75.74 27.7147 75.5583 27.8647 75.325 27.9647C75.0917 28.0614 74.825 28.1097 74.525 28.1097ZM76.2874 28.0497L77.6074 24.6197H78.5274L79.8474 28.0497H79.0424L78.7974 27.3747H77.3024L77.0574 28.0497H76.2874ZM77.5174 26.7747H78.5824L78.2774 25.9297C78.2641 25.8931 78.2474 25.8497 78.2274 25.7997C78.2108 25.7464 78.1924 25.6881 78.1724 25.6247C78.1524 25.5614 78.1324 25.4997 78.1124 25.4397C78.0958 25.3764 78.0791 25.3197 78.0624 25.2697H78.0324C78.0158 25.3331 77.9941 25.4081 77.9674 25.4947C77.9408 25.5781 77.9141 25.6597 77.8874 25.7397C77.8608 25.8164 77.8391 25.8797 77.8224 25.9297L77.5174 26.7747ZM80.2556 28.0497V24.6197H82.1356C82.3889 24.6197 82.5989 24.6647 82.7656 24.7547C82.9356 24.8447 83.0623 24.9714 83.1456 25.1347C83.2289 25.2947 83.2706 25.4797 83.2706 25.6897C83.2706 25.9131 83.2206 26.1114 83.1206 26.2847C83.0206 26.4547 82.8756 26.5847 82.6856 26.6747L83.3856 28.0497H82.5606L81.9556 26.7997H81.0006V28.0497H80.2556ZM81.0006 26.2097H82.0356C82.1856 26.2097 82.3023 26.1647 82.3856 26.0747C82.4689 25.9814 82.5106 25.8564 82.5106 25.6997C82.5106 25.5997 82.4923 25.5147 82.4556 25.4447C82.4189 25.3714 82.3656 25.3164 82.2956 25.2797C82.2256 25.2431 82.1389 25.2247 82.0356 25.2247H81.0006V26.2097ZM83.908 28.0497V24.6197H86.648V25.2297H84.658V25.9947H86.418V26.5997H84.658V27.4347H86.678V28.0497H83.908ZM87.321 28.0497V24.6197H90.061V25.2297H88.071V25.9947H89.831V26.5997H88.071V27.4347H90.091V28.0497H87.321ZM90.7341 28.0497V24.6197H92.6141C92.8675 24.6197 93.0775 24.6647 93.2441 24.7547C93.4141 24.8447 93.5408 24.9714 93.6241 25.1347C93.7075 25.2947 93.7491 25.4797 93.7491 25.6897C93.7491 25.9131 93.6991 26.1114 93.5991 26.2847C93.4991 26.4547 93.3541 26.5847 93.1641 26.6747L93.8641 28.0497H93.0391L92.4341 26.7997H91.4791V28.0497H90.7341ZM91.4791 26.2097H92.5141C92.6641 26.2097 92.7808 26.1647 92.8641 26.0747C92.9475 25.9814 92.9891 25.8564 92.9891 25.6997C92.9891 25.5997 92.9708 25.5147 92.9341 25.4447C92.8975 25.3714 92.8441 25.3164 92.7741 25.2797C92.7041 25.2431 92.6175 25.2247 92.5141 25.2247H91.4791V26.2097ZM95.3679 28.0497V24.6197H97.1529C97.3996 24.6197 97.6046 24.6664 97.7679 24.7597C97.9346 24.8497 98.0596 24.9781 98.1429 25.1447C98.2296 25.3081 98.2729 25.5031 98.2729 25.7297C98.2729 25.9564 98.2279 26.1547 98.1379 26.3247C98.0512 26.4914 97.9229 26.6214 97.7529 26.7147C97.5829 26.8081 97.3746 26.8547 97.1279 26.8547H96.1129V28.0497H95.3679ZM96.1129 26.2447H97.0279C97.1846 26.2447 97.3046 26.1997 97.3879 26.1097C97.4746 26.0197 97.5179 25.8947 97.5179 25.7347C97.5179 25.6247 97.4996 25.5331 97.4629 25.4597C97.4262 25.3864 97.3712 25.3297 97.2979 25.2897C97.2279 25.2497 97.1379 25.2297 97.0279 25.2297H96.1129V26.2447ZM98.1722 28.0497L99.4922 24.6197H100.412L101.732 28.0497H100.927L100.682 27.3747H99.1872L98.9422 28.0497H98.1722ZM99.4022 26.7747H100.467L100.162 25.9297C100.149 25.8931 100.132 25.8497 100.112 25.7997C100.096 25.7464 100.077 25.6881 100.057 25.6247C100.037 25.5614 100.017 25.4997 99.9972 25.4397C99.9805 25.3764 99.9639 25.3197 99.9472 25.2697H99.9172C99.9005 25.3331 99.8789 25.4081 99.8522 25.4947C99.8255 25.5781 99.7989 25.6597 99.7722 25.7397C99.7455 25.8164 99.7239 25.8797 99.7072 25.9297L99.4022 26.7747ZM102.565 28.0497V25.2447H101.465V24.6197H104.42V25.2447H103.315V28.0497H102.565ZM104.924 28.0497V24.6197H105.669V25.9797H107.189V24.6197H107.934V28.0497H107.189V26.6097H105.669V28.0497H104.924ZM109.258 28.0497L108.358 24.6197H109.148L109.648 26.6647C109.658 26.6947 109.668 26.7397 109.678 26.7997C109.688 26.8564 109.698 26.9164 109.708 26.9797C109.718 27.0431 109.726 27.0997 109.733 27.1497H109.758C109.765 27.1131 109.77 27.0714 109.773 27.0247C109.78 26.9781 109.786 26.9331 109.793 26.8897C109.803 26.8431 109.811 26.7997 109.818 26.7597C109.828 26.7197 109.835 26.6881 109.838 26.6647L110.303 24.6197H111.193L111.668 26.6647C111.678 26.6981 111.688 26.7431 111.698 26.7997C111.708 26.8564 111.718 26.9164 111.728 26.9797C111.738 27.0431 111.746 27.0997 111.753 27.1497H111.778C111.785 27.1131 111.791 27.0731 111.798 27.0297C111.808 26.9864 111.816 26.9431 111.823 26.8997C111.833 26.8531 111.843 26.8097 111.853 26.7697C111.863 26.7297 111.871 26.6947 111.878 26.6647L112.373 24.6197H113.088L112.183 28.0497H111.333L110.828 25.9397C110.818 25.8931 110.806 25.8397 110.793 25.7797C110.783 25.7164 110.773 25.6547 110.763 25.5947C110.753 25.5347 110.745 25.4814 110.738 25.4347H110.718C110.711 25.4814 110.703 25.5364 110.693 25.5997C110.686 25.6631 110.676 25.7247 110.663 25.7847C110.653 25.8447 110.643 25.8964 110.633 25.9397L110.133 28.0497H109.258ZM112.972 28.0497L114.292 24.6197H115.212L116.532 28.0497H115.727L115.482 27.3747H113.987L113.742 28.0497H112.972ZM114.202 26.7747H115.267L114.962 25.9297C114.949 25.8931 114.932 25.8497 114.912 25.7997C114.895 25.7464 114.877 25.6881 114.857 25.6247C114.837 25.5614 114.817 25.4997 114.797 25.4397C114.78 25.3764 114.764 25.3197 114.747 25.2697H114.717C114.7 25.3331 114.679 25.4081 114.652 25.4947C114.625 25.5781 114.599 25.6597 114.572 25.7397C114.545 25.8164 114.524 25.8797 114.507 25.9297L114.202 26.7747ZM117.525 28.0497V26.6697L116.195 24.6197H117.06L117.91 25.9997H117.935L118.78 24.6197H119.595L118.275 26.6697V28.0497H117.525ZM120.026 29.0297V24.4297H120.531V29.0297H120.026ZM122.272 28.0497V24.6197H124.152C124.406 24.6197 124.616 24.6647 124.782 24.7547C124.952 24.8447 125.079 24.9714 125.162 25.1347C125.246 25.2947 125.287 25.4797 125.287 25.6897C125.287 25.9131 125.237 26.1114 125.137 26.2847C125.037 26.4547 124.892 26.5847 124.702 26.6747L125.402 28.0497H124.577L123.972 26.7997H123.017V28.0497H122.272ZM123.017 26.2097H124.052C124.202 26.2097 124.319 26.1647 124.402 26.0747C124.486 25.9814 124.527 25.8564 124.527 25.6997C124.527 25.5997 124.509 25.5147 124.472 25.4447C124.436 25.3714 124.382 25.3164 124.312 25.2797C124.242 25.2431 124.156 25.2247 124.052 25.2247H123.017V26.2097ZM125.925 28.0497V24.6197H128.665V25.2297H126.675V25.9947H128.435V26.5997H126.675V27.4347H128.695V28.0497H125.925ZM130.873 28.1097C130.516 28.1097 130.211 28.0481 129.958 27.9247C129.704 27.7981 129.511 27.6031 129.378 27.3397C129.248 27.0764 129.183 26.7414 129.183 26.3347C129.183 25.7347 129.329 25.2897 129.623 24.9997C129.919 24.7064 130.336 24.5597 130.873 24.5597C131.166 24.5597 131.429 24.6097 131.663 24.7097C131.896 24.8097 132.079 24.9597 132.213 25.1597C132.349 25.3597 132.418 25.6114 132.418 25.9147H131.668C131.668 25.7547 131.634 25.6197 131.568 25.5097C131.504 25.3997 131.413 25.3164 131.293 25.2597C131.176 25.1997 131.039 25.1697 130.883 25.1697C130.669 25.1697 130.493 25.2114 130.353 25.2947C130.216 25.3781 130.114 25.5014 130.048 25.6647C129.984 25.8247 129.953 26.0214 129.953 26.2547V26.4097C129.953 26.6497 129.986 26.8514 130.053 27.0147C130.119 27.1747 130.219 27.2964 130.353 27.3797C130.489 27.4597 130.664 27.4997 130.878 27.4997C131.044 27.4997 131.189 27.4714 131.313 27.4147C131.436 27.3581 131.531 27.2747 131.598 27.1647C131.664 27.0547 131.698 26.9197 131.698 26.7597H132.418C132.418 27.0631 132.351 27.3147 132.218 27.5147C132.088 27.7147 131.906 27.8647 131.673 27.9647C131.439 28.0614 131.173 28.1097 130.873 28.1097ZM133.005 28.0497V24.6197H134.885C135.138 24.6197 135.348 24.6647 135.515 24.7547C135.685 24.8447 135.811 24.9714 135.895 25.1347C135.978 25.2947 136.02 25.4797 136.02 25.6897C136.02 25.9131 135.97 26.1114 135.87 26.2847C135.77 26.4547 135.625 26.5847 135.435 26.6747L136.135 28.0497H135.31L134.705 26.7997H133.75V28.0497H133.005ZM133.75 26.2097H134.785C134.935 26.2097 135.051 26.1647 135.135 26.0747C135.218 25.9814 135.26 25.8564 135.26 25.6997C135.26 25.5997 135.241 25.5147 135.205 25.4447C135.168 25.3714 135.115 25.3164 135.045 25.2797C134.975 25.2431 134.888 25.2247 134.785 25.2247H133.75V26.2097ZM138.098 28.1097C137.785 28.1097 137.515 28.0597 137.288 27.9597C137.065 27.8597 136.893 27.7097 136.773 27.5097C136.653 27.3064 136.593 27.0547 136.593 26.7547V24.6197H137.343V26.7347C137.343 26.9814 137.408 27.1714 137.538 27.3047C137.668 27.4347 137.855 27.4997 138.098 27.4997C138.341 27.4997 138.528 27.4347 138.658 27.3047C138.791 27.1714 138.858 26.9814 138.858 26.7347V24.6197H139.608V26.7547C139.608 27.0547 139.548 27.3064 139.428 27.5097C139.308 27.7097 139.135 27.8597 138.908 27.9597C138.685 28.0597 138.415 28.1097 138.098 28.1097ZM140.353 28.0497V24.6197H141.098V28.0497H140.353ZM142.702 28.0497V25.2447H141.602V24.6197H144.557V25.2447H143.452V28.0497H142.702ZM145.06 28.0497V24.6197H146.195L146.685 26.3747C146.705 26.4381 146.725 26.5131 146.745 26.5997C146.765 26.6864 146.785 26.7731 146.805 26.8597C146.829 26.9431 146.847 27.0181 146.86 27.0847H146.9C146.907 27.0281 146.919 26.9614 146.935 26.8847C146.952 26.8047 146.97 26.7197 146.99 26.6297C147.01 26.5397 147.032 26.4531 147.055 26.3697L147.545 24.6197H148.66V28.0497H147.925V26.4247C147.925 26.2747 147.925 26.1247 147.925 25.9747C147.929 25.8214 147.932 25.6881 147.935 25.5747C147.942 25.4614 147.945 25.3881 147.945 25.3547H147.905C147.899 25.3914 147.882 25.4597 147.855 25.5597C147.832 25.6564 147.805 25.7597 147.775 25.8697C147.749 25.9797 147.724 26.0747 147.7 26.1547L147.165 28.0497H146.515L145.975 26.1597C145.955 26.0897 145.932 26.0081 145.905 25.9147C145.882 25.8181 145.859 25.7197 145.835 25.6197C145.815 25.5164 145.795 25.4281 145.775 25.3547H145.735C145.739 25.4447 145.742 25.5531 145.745 25.6797C145.749 25.8031 145.752 25.9314 145.755 26.0647C145.759 26.1947 145.76 26.3147 145.76 26.4247V28.0497H145.06ZM149.421 28.0497V24.6197H152.161V25.2297H150.171V25.9947H151.931V26.5997H150.171V27.4347H152.191V28.0497H149.421ZM152.834 28.0497V24.6197H153.519L154.899 26.4697C154.919 26.4931 154.944 26.5264 154.974 26.5697C155.004 26.6097 155.032 26.6497 155.059 26.6897C155.085 26.7297 155.104 26.7614 155.114 26.7847H155.139C155.139 26.7281 155.139 26.6731 155.139 26.6197C155.139 26.5631 155.139 26.5131 155.139 26.4697V24.6197H155.844V28.0497H155.159L153.749 26.1547C153.715 26.1081 153.68 26.0564 153.644 25.9997C153.607 25.9431 153.58 25.8997 153.564 25.8697H153.539C153.539 25.9197 153.539 25.9697 153.539 26.0197C153.539 26.0664 153.539 26.1114 153.539 26.1547V28.0497H152.834ZM157.448 28.0497V25.2447H156.348V24.6197H159.303V25.2447H158.198V28.0497H157.448ZM160.788 29.0297V24.4297H161.293V29.0297H160.788ZM163.034 28.0497V24.6197H164.169L164.659 26.3747C164.679 26.4381 164.699 26.5131 164.719 26.5997C164.739 26.6864 164.759 26.7731 164.779 26.8597C164.802 26.9431 164.821 27.0181 164.834 27.0847H164.874C164.881 27.0281 164.892 26.9614 164.909 26.8847C164.926 26.8047 164.944 26.7197 164.964 26.6297C164.984 26.5397 165.006 26.4531 165.029 26.3697L165.519 24.6197H166.634V28.0497H165.899V26.4247C165.899 26.2747 165.899 26.1247 165.899 25.9747C165.902 25.8214 165.906 25.6881 165.909 25.5747C165.916 25.4614 165.919 25.3881 165.919 25.3547H165.879C165.872 25.3914 165.856 25.4597 165.829 25.5597C165.806 25.6564 165.779 25.7597 165.749 25.8697C165.722 25.9797 165.697 26.0747 165.674 26.1547L165.139 28.0497H164.489L163.949 26.1597C163.929 26.0897 163.906 26.0081 163.879 25.9147C163.856 25.8181 163.832 25.7197 163.809 25.6197C163.789 25.5164 163.769 25.4281 163.749 25.3547H163.709C163.712 25.4447 163.716 25.5531 163.719 25.6797C163.722 25.8031 163.726 25.9314 163.729 26.0647C163.732 26.1947 163.734 26.3147 163.734 26.4247V28.0497H163.034ZM167.394 28.0497V24.6197H168.139V28.0497H167.394ZM170.458 28.1097C169.918 28.1097 169.502 27.9664 169.208 27.6797C168.918 27.3897 168.773 26.9414 168.773 26.3347C168.773 25.9314 168.843 25.5997 168.983 25.3397C169.123 25.0764 169.327 24.8814 169.593 24.7547C169.86 24.6247 170.18 24.5597 170.553 24.5597C170.777 24.5597 170.987 24.5847 171.183 24.6347C171.38 24.6847 171.553 24.7614 171.703 24.8647C171.857 24.9681 171.975 25.0981 172.058 25.2547C172.145 25.4081 172.188 25.5914 172.188 25.8047H171.433C171.433 25.7014 171.41 25.6097 171.363 25.5297C171.32 25.4497 171.258 25.3831 171.178 25.3297C171.098 25.2764 171.007 25.2364 170.903 25.2097C170.8 25.1831 170.692 25.1697 170.578 25.1697C170.405 25.1697 170.253 25.1931 170.123 25.2397C169.993 25.2831 169.885 25.3514 169.798 25.4447C169.715 25.5347 169.652 25.6481 169.608 25.7847C169.565 25.9214 169.543 26.0797 169.543 26.2597V26.4097C169.543 26.6597 169.58 26.8647 169.653 27.0247C169.727 27.1847 169.837 27.3047 169.983 27.3847C170.13 27.4614 170.312 27.4997 170.528 27.4997C170.708 27.4997 170.867 27.4731 171.003 27.4197C171.143 27.3631 171.252 27.2831 171.328 27.1797C171.408 27.0764 171.448 26.9497 171.448 26.7997V26.7647H170.423V26.1947H172.188V28.0497H171.698L171.633 27.6797C171.533 27.7764 171.425 27.8564 171.308 27.9197C171.195 27.9831 171.068 28.0297 170.928 28.0597C170.788 28.0931 170.632 28.1097 170.458 28.1097ZM172.907 28.0497V24.6197H174.787C175.04 24.6197 175.25 24.6647 175.417 24.7547C175.587 24.8447 175.714 24.9714 175.797 25.1347C175.88 25.2947 175.922 25.4797 175.922 25.6897C175.922 25.9131 175.872 26.1114 175.772 26.2847C175.672 26.4547 175.527 26.5847 175.337 26.6747L176.037 28.0497H175.212L174.607 26.7997H173.652V28.0497H172.907ZM173.652 26.2097H174.687C174.837 26.2097 174.954 26.1647 175.037 26.0747C175.12 25.9814 175.162 25.8564 175.162 25.6997C175.162 25.5997 175.144 25.5147 175.107 25.4447C175.07 25.3714 175.017 25.3164 174.947 25.2797C174.877 25.2431 174.79 25.2247 174.687 25.2247H173.652V26.2097ZM176.209 28.0497L177.529 24.6197H178.449L179.769 28.0497H178.964L178.719 27.3747H177.224L176.979 28.0497H176.209ZM177.439 26.7747H178.504L178.199 25.9297C178.186 25.8931 178.169 25.8497 178.149 25.7997C178.133 25.7464 178.114 25.6881 178.094 25.6247C178.074 25.5614 178.054 25.4997 178.034 25.4397C178.018 25.3764 178.001 25.3197 177.984 25.2697H177.954C177.938 25.3331 177.916 25.4081 177.889 25.4947C177.863 25.5781 177.836 25.6597 177.809 25.7397C177.783 25.8164 177.761 25.8797 177.744 25.9297L177.439 26.7747ZM180.603 28.0497V25.2447H179.503V24.6197H182.458V25.2447H181.353V28.0497H180.603ZM182.961 28.0497V24.6197H183.706V28.0497H182.961ZM186.065 28.1097C185.701 28.1097 185.388 28.0447 185.125 27.9147C184.861 27.7847 184.66 27.5881 184.52 27.3247C184.38 27.0614 184.31 26.7314 184.31 26.3347C184.31 25.9314 184.38 25.5997 184.52 25.3397C184.66 25.0764 184.861 24.8814 185.125 24.7547C185.388 24.6247 185.701 24.5597 186.065 24.5597C186.435 24.5597 186.75 24.6247 187.01 24.7547C187.273 24.8814 187.475 25.0764 187.615 25.3397C187.755 25.5997 187.825 25.9314 187.825 26.3347C187.825 26.7314 187.755 27.0614 187.615 27.3247C187.475 27.5881 187.273 27.7847 187.01 27.9147C186.75 28.0447 186.435 28.1097 186.065 28.1097ZM186.065 27.4997C186.228 27.4997 186.371 27.4764 186.495 27.4297C186.618 27.3831 186.721 27.3131 186.805 27.2197C186.888 27.1264 186.951 27.0131 186.995 26.8797C187.038 26.7431 187.06 26.5881 187.06 26.4147V26.2597C187.06 26.0831 187.038 25.9264 186.995 25.7897C186.951 25.6531 186.888 25.5397 186.805 25.4497C186.721 25.3564 186.618 25.2864 186.495 25.2397C186.371 25.1931 186.228 25.1697 186.065 25.1697C185.905 25.1697 185.763 25.1931 185.64 25.2397C185.516 25.2864 185.413 25.3564 185.33 25.4497C185.246 25.5397 185.183 25.6531 185.14 25.7897C185.1 25.9264 185.08 26.0831 185.08 26.2597V26.4147C185.08 26.5881 185.1 26.7431 185.14 26.8797C185.183 27.0131 185.246 27.1264 185.33 27.2197C185.413 27.3131 185.516 27.3831 185.64 27.4297C185.763 27.4764 185.905 27.4997 186.065 27.4997ZM188.429 28.0497V24.6197H189.114L190.494 26.4697C190.514 26.4931 190.539 26.5264 190.569 26.5697C190.599 26.6097 190.628 26.6497 190.654 26.6897C190.681 26.7297 190.699 26.7614 190.709 26.7847H190.734C190.734 26.7281 190.734 26.6731 190.734 26.6197C190.734 26.5631 190.734 26.5131 190.734 26.4697V24.6197H191.439V28.0497H190.754L189.344 26.1547C189.311 26.1081 189.276 26.0564 189.239 25.9997C189.203 25.9431 189.176 25.8997 189.159 25.8697H189.134C189.134 25.9197 189.134 25.9697 189.134 26.0197C189.134 26.0664 189.134 26.1114 189.134 26.1547V28.0497H188.429Z" fill="#344054"/>
<defs>
<linearGradient id="paint0_linear_59_1063" x1="12.7877" y1="0" x2="12.7877" y2="30" gradientUnits="userSpaceOnUse">
<stop stop-color="#FF3AD4"/>
<stop offset="1" stop-color="#3A65FF"/>
</linearGradient>
<linearGradient id="paint1_linear_59_1063" x1="12.7877" y1="0" x2="12.7877" y2="30" gradientUnits="userSpaceOnUse">
<stop stop-color="#FF3AD4"/>
<stop offset="1" stop-color="#3A65FF"/>
</linearGradient>
<linearGradient id="paint2_linear_59_1063" x1="12.7877" y1="0" x2="12.7877" y2="30" gradientUnits="userSpaceOnUse">
<stop stop-color="#51FFE0"/>
<stop offset="1" stop-color="#5182FF"/>
</linearGradient>
<linearGradient id="paint3_linear_59_1063" x1="12.7877" y1="0" x2="12.7877" y2="30" gradientUnits="userSpaceOnUse">
<stop stop-color="#FF41E1"/>
<stop offset="1" stop-color="#7525F7"/>
</linearGradient>
<linearGradient id="paint4_linear_59_1063" x1="12.7877" y1="0" x2="12.7877" y2="30" gradientUnits="userSpaceOnUse">
<stop stop-color="#561BFF"/>
<stop offset="1" stop-color="#51F5FF"/>
</linearGradient>
<linearGradient id="paint5_linear_59_1063" x1="12.7877" y1="0" x2="12.7877" y2="30" gradientUnits="userSpaceOnUse">
<stop stop-color="#561BFF"/>
<stop offset="1" stop-color="#51F5FF"/>
</linearGradient>
<linearGradient id="paint6_linear_59_1063" x1="12.7877" y1="0" x2="12.7877" y2="30" gradientUnits="userSpaceOnUse">
<stop stop-color="#184BCD"/>
<stop offset="1" stop-color="#261AAE"/>
</linearGradient>
<linearGradient id="paint7_linear_59_1063" x1="12.7877" y1="0" x2="12.7877" y2="30" gradientUnits="userSpaceOnUse">
<stop stop-color="#184BCD"/>
<stop offset="1" stop-color="#261AAE"/>
</linearGradient>
<linearGradient id="paint8_linear_59_1063" x1="12.7877" y1="0" x2="12.7877" y2="30" gradientUnits="userSpaceOnUse">
<stop stop-color="#4C1ADB"/>
<stop offset="1" stop-color="#372DAD"/>
</linearGradient>
<linearGradient id="paint9_linear_59_1063" x1="12.5337" y1="17.256" x2="10.3767" y2="13.0586" gradientUnits="userSpaceOnUse">
<stop stop-color="#7858F1"/>
<stop offset="1" stop-color="#C636EA"/>
</linearGradient>
<linearGradient id="paint10_linear_59_1063" x1="15.3321" y1="17.081" x2="12.8253" y2="13.0002" gradientUnits="userSpaceOnUse">
<stop offset="0.138542" stop-color="#51B7F2"/>
<stop offset="1" stop-color="#5564FF"/>
</linearGradient>
<linearGradient id="paint11_linear_59_1063" x1="39.544" y1="5.06796" x2="51.7646" y2="52.8192" gradientUnits="userSpaceOnUse">
<stop stop-color="#1F34BF"/>
<stop offset="1" stop-color="#F13EE3"/>
</linearGradient>
</defs>
</svg>
