<svg width="71" height="19" viewBox="0 0 71 19" fill="none" xmlns="http://www.w3.org/2000/svg">
<g filter="url(#filter0_d_59_1029)">
<mask id="path-1-outside-1_59_1029" maskUnits="userSpaceOnUse" x="3" y="-1" width="65" height="13" fill="black">
<rect fill="white" x="3" y="-1" width="65" height="13"/>
<path d="M8.394 10.156C7.78733 10.156 7.224 10.0433 6.704 9.818C6.184 9.584 5.742 9.26767 5.378 8.869C5.014 8.47033 4.74533 8.011 4.572 7.491L5.872 6.945C6.106 7.543 6.44833 8.00233 6.899 8.323C7.34967 8.64367 7.86967 8.804 8.459 8.804C8.80567 8.804 9.109 8.752 9.369 8.648C9.629 8.53533 9.82833 8.37933 9.967 8.18C10.1143 7.98067 10.188 7.751 10.188 7.491C10.188 7.13567 10.0883 6.854 9.889 6.646C9.68967 6.438 9.395 6.27333 9.005 6.152L7.185 5.58C6.457 5.35467 5.90233 5.01233 5.521 4.553C5.13967 4.085 4.949 3.539 4.949 2.915C4.949 2.369 5.08333 1.89233 5.352 1.485C5.62067 1.069 5.989 0.744 6.457 0.51C6.93367 0.276 7.47533 0.159 8.082 0.159C8.66267 0.159 9.19133 0.263 9.668 0.470999C10.1447 0.670333 10.552 0.947666 10.89 1.303C11.2367 1.65833 11.488 2.07 11.644 2.538L10.37 3.097C10.1793 2.58567 9.88033 2.19133 9.473 1.914C9.07433 1.63667 8.61067 1.498 8.082 1.498C7.76133 1.498 7.47967 1.55433 7.237 1.667C6.99433 1.771 6.80367 1.927 6.665 2.135C6.535 2.33433 6.47 2.56833 6.47 2.837C6.47 3.149 6.56967 3.42633 6.769 3.669C6.96833 3.91167 7.27167 4.09367 7.679 4.215L9.369 4.748C10.1403 4.982 10.721 5.32 11.111 5.762C11.501 6.19533 11.696 6.737 11.696 7.387C11.696 7.92433 11.553 8.401 11.267 8.817C10.9897 9.233 10.604 9.56233 10.11 9.805C9.616 10.039 9.044 10.156 8.394 10.156ZM17.305 10.156C16.5857 10.156 15.9443 10.0043 15.381 9.701C14.8263 9.39767 14.3887 8.98167 14.068 8.453C13.756 7.92433 13.6 7.322 13.6 6.646V0.314999H15.134V6.581C15.134 7.00567 15.225 7.38267 15.407 7.712C15.5977 8.04133 15.8533 8.297 16.174 8.479C16.5033 8.661 16.8803 8.752 17.305 8.752C17.7383 8.752 18.1153 8.661 18.436 8.479C18.7653 8.297 19.021 8.04133 19.203 7.712C19.3937 7.38267 19.489 7.00567 19.489 6.581V0.314999H21.01V6.646C21.01 7.322 20.854 7.92433 20.542 8.453C20.23 8.98167 19.7923 9.39767 19.229 9.701C18.6743 10.0043 18.033 10.156 17.305 10.156ZM23.1929 10V0.314999H26.7159C27.3659 0.314999 27.9379 0.436333 28.4319 0.679C28.9345 0.912999 29.3245 1.25967 29.6019 1.719C29.8792 2.16967 30.0179 2.71133 30.0179 3.344C30.0179 3.968 29.8749 4.50533 29.5889 4.956C29.3115 5.40667 28.9259 5.75333 28.4319 5.996C27.9379 6.23867 27.3659 6.36 26.7159 6.36H24.7269V10H23.1929ZM24.7269 4.995H26.7549C27.1015 4.995 27.4049 4.92567 27.6649 4.787C27.9249 4.64833 28.1285 4.45767 28.2759 4.215C28.4232 3.96367 28.4969 3.669 28.4969 3.331C28.4969 2.993 28.4232 2.70267 28.2759 2.46C28.1285 2.20867 27.9249 2.018 27.6649 1.888C27.4049 1.74933 27.1015 1.68 26.7549 1.68H24.7269V4.995ZM31.8572 10V0.314999H35.3802C36.0302 0.314999 36.6022 0.436333 37.0962 0.679C37.5988 0.912999 37.9888 1.25967 38.2662 1.719C38.5435 2.16967 38.6822 2.71133 38.6822 3.344C38.6822 3.968 38.5392 4.50533 38.2532 4.956C37.9758 5.40667 37.5902 5.75333 37.0962 5.996C36.6022 6.23867 36.0302 6.36 35.3802 6.36H33.3912V10H31.8572ZM33.3912 4.995H35.4192C35.7658 4.995 36.0692 4.92567 36.3292 4.787C36.5892 4.64833 36.7928 4.45767 36.9402 4.215C37.0875 3.96367 37.1612 3.669 37.1612 3.331C37.1612 2.993 37.0875 2.70267 36.9402 2.46C36.7928 2.20867 36.5892 2.018 36.3292 1.888C36.0692 1.74933 35.7658 1.68 35.4192 1.68H33.3912V4.995ZM45.2275 10.156C44.5255 10.156 43.8711 10.0303 43.2645 9.779C42.6665 9.52767 42.1378 9.17667 41.6785 8.726C41.2278 8.27533 40.8725 7.74667 40.6125 7.14C40.3611 6.53333 40.2355 5.87033 40.2355 5.151C40.2355 4.43167 40.3611 3.76867 40.6125 3.162C40.8725 2.54667 41.2278 2.018 41.6785 1.576C42.1291 1.12533 42.6578 0.778666 43.2645 0.535999C43.8711 0.284666 44.5255 0.159 45.2275 0.159C45.9381 0.159 46.5925 0.284666 47.1905 0.535999C47.7971 0.778666 48.3258 1.12533 48.7765 1.576C49.2358 2.02667 49.5911 2.55533 49.8425 3.162C50.0938 3.76867 50.2195 4.43167 50.2195 5.151C50.2195 5.87033 50.0895 6.53333 49.8295 7.14C49.5781 7.74667 49.2271 8.27533 48.7765 8.726C48.3258 9.17667 47.7971 9.52767 47.1905 9.779C46.5838 10.0303 45.9295 10.156 45.2275 10.156ZM45.2275 8.752C45.7301 8.752 46.1895 8.661 46.6055 8.479C47.0301 8.297 47.3985 8.04567 47.7105 7.725C48.0225 7.39567 48.2651 7.01433 48.4385 6.581C48.6118 6.139 48.6985 5.66233 48.6985 5.151C48.6985 4.63967 48.6118 4.16733 48.4385 3.734C48.2651 3.30067 48.0225 2.91933 47.7105 2.59C47.3985 2.26067 47.0301 2.005 46.6055 1.823C46.1895 1.641 45.7301 1.55 45.2275 1.55C44.7248 1.55 44.2611 1.641 43.8365 1.823C43.4205 2.005 43.0565 2.26067 42.7445 2.59C42.4325 2.91933 42.1898 3.30067 42.0165 3.734C41.8518 4.16733 41.7695 4.63967 41.7695 5.151C41.7695 5.66233 41.8518 6.139 42.0165 6.581C42.1898 7.01433 42.4325 7.39567 42.7445 7.725C43.0565 8.04567 43.4248 8.297 43.8495 8.479C44.2741 8.661 44.7335 8.752 45.2275 8.752ZM52.1946 10V0.314999H55.7176C56.3676 0.314999 56.9396 0.436333 57.4336 0.679C57.9276 0.912999 58.3132 1.25967 58.5906 1.719C58.8766 2.16967 59.0196 2.71133 59.0196 3.344C59.0196 4.01133 58.8506 4.58333 58.5126 5.06C58.1832 5.53667 57.7369 5.88333 57.1736 6.1L59.4096 10H57.6676L55.2886 5.775L56.2896 6.36H53.7286V10H52.1946ZM53.7286 4.995H55.7436C56.0989 4.995 56.4066 4.92567 56.6666 4.787C56.9266 4.64833 57.1259 4.45767 57.2646 4.215C57.4119 3.96367 57.4856 3.669 57.4856 3.331C57.4856 2.993 57.4119 2.70267 57.2646 2.46C57.1259 2.20867 56.9266 2.018 56.6666 1.888C56.4066 1.74933 56.0989 1.68 55.7436 1.68H53.7286V4.995ZM62.4225 10V1.68H59.8485V0.314999H66.4785V1.68H63.9435V10H62.4225Z"/>
</mask>
<path d="M8.394 10.156C7.78733 10.156 7.224 10.0433 6.704 9.818C6.184 9.584 5.742 9.26767 5.378 8.869C5.014 8.47033 4.74533 8.011 4.572 7.491L5.872 6.945C6.106 7.543 6.44833 8.00233 6.899 8.323C7.34967 8.64367 7.86967 8.804 8.459 8.804C8.80567 8.804 9.109 8.752 9.369 8.648C9.629 8.53533 9.82833 8.37933 9.967 8.18C10.1143 7.98067 10.188 7.751 10.188 7.491C10.188 7.13567 10.0883 6.854 9.889 6.646C9.68967 6.438 9.395 6.27333 9.005 6.152L7.185 5.58C6.457 5.35467 5.90233 5.01233 5.521 4.553C5.13967 4.085 4.949 3.539 4.949 2.915C4.949 2.369 5.08333 1.89233 5.352 1.485C5.62067 1.069 5.989 0.744 6.457 0.51C6.93367 0.276 7.47533 0.159 8.082 0.159C8.66267 0.159 9.19133 0.263 9.668 0.470999C10.1447 0.670333 10.552 0.947666 10.89 1.303C11.2367 1.65833 11.488 2.07 11.644 2.538L10.37 3.097C10.1793 2.58567 9.88033 2.19133 9.473 1.914C9.07433 1.63667 8.61067 1.498 8.082 1.498C7.76133 1.498 7.47967 1.55433 7.237 1.667C6.99433 1.771 6.80367 1.927 6.665 2.135C6.535 2.33433 6.47 2.56833 6.47 2.837C6.47 3.149 6.56967 3.42633 6.769 3.669C6.96833 3.91167 7.27167 4.09367 7.679 4.215L9.369 4.748C10.1403 4.982 10.721 5.32 11.111 5.762C11.501 6.19533 11.696 6.737 11.696 7.387C11.696 7.92433 11.553 8.401 11.267 8.817C10.9897 9.233 10.604 9.56233 10.11 9.805C9.616 10.039 9.044 10.156 8.394 10.156ZM17.305 10.156C16.5857 10.156 15.9443 10.0043 15.381 9.701C14.8263 9.39767 14.3887 8.98167 14.068 8.453C13.756 7.92433 13.6 7.322 13.6 6.646V0.314999H15.134V6.581C15.134 7.00567 15.225 7.38267 15.407 7.712C15.5977 8.04133 15.8533 8.297 16.174 8.479C16.5033 8.661 16.8803 8.752 17.305 8.752C17.7383 8.752 18.1153 8.661 18.436 8.479C18.7653 8.297 19.021 8.04133 19.203 7.712C19.3937 7.38267 19.489 7.00567 19.489 6.581V0.314999H21.01V6.646C21.01 7.322 20.854 7.92433 20.542 8.453C20.23 8.98167 19.7923 9.39767 19.229 9.701C18.6743 10.0043 18.033 10.156 17.305 10.156ZM23.1929 10V0.314999H26.7159C27.3659 0.314999 27.9379 0.436333 28.4319 0.679C28.9345 0.912999 29.3245 1.25967 29.6019 1.719C29.8792 2.16967 30.0179 2.71133 30.0179 3.344C30.0179 3.968 29.8749 4.50533 29.5889 4.956C29.3115 5.40667 28.9259 5.75333 28.4319 5.996C27.9379 6.23867 27.3659 6.36 26.7159 6.36H24.7269V10H23.1929ZM24.7269 4.995H26.7549C27.1015 4.995 27.4049 4.92567 27.6649 4.787C27.9249 4.64833 28.1285 4.45767 28.2759 4.215C28.4232 3.96367 28.4969 3.669 28.4969 3.331C28.4969 2.993 28.4232 2.70267 28.2759 2.46C28.1285 2.20867 27.9249 2.018 27.6649 1.888C27.4049 1.74933 27.1015 1.68 26.7549 1.68H24.7269V4.995ZM31.8572 10V0.314999H35.3802C36.0302 0.314999 36.6022 0.436333 37.0962 0.679C37.5988 0.912999 37.9888 1.25967 38.2662 1.719C38.5435 2.16967 38.6822 2.71133 38.6822 3.344C38.6822 3.968 38.5392 4.50533 38.2532 4.956C37.9758 5.40667 37.5902 5.75333 37.0962 5.996C36.6022 6.23867 36.0302 6.36 35.3802 6.36H33.3912V10H31.8572ZM33.3912 4.995H35.4192C35.7658 4.995 36.0692 4.92567 36.3292 4.787C36.5892 4.64833 36.7928 4.45767 36.9402 4.215C37.0875 3.96367 37.1612 3.669 37.1612 3.331C37.1612 2.993 37.0875 2.70267 36.9402 2.46C36.7928 2.20867 36.5892 2.018 36.3292 1.888C36.0692 1.74933 35.7658 1.68 35.4192 1.68H33.3912V4.995ZM45.2275 10.156C44.5255 10.156 43.8711 10.0303 43.2645 9.779C42.6665 9.52767 42.1378 9.17667 41.6785 8.726C41.2278 8.27533 40.8725 7.74667 40.6125 7.14C40.3611 6.53333 40.2355 5.87033 40.2355 5.151C40.2355 4.43167 40.3611 3.76867 40.6125 3.162C40.8725 2.54667 41.2278 2.018 41.6785 1.576C42.1291 1.12533 42.6578 0.778666 43.2645 0.535999C43.8711 0.284666 44.5255 0.159 45.2275 0.159C45.9381 0.159 46.5925 0.284666 47.1905 0.535999C47.7971 0.778666 48.3258 1.12533 48.7765 1.576C49.2358 2.02667 49.5911 2.55533 49.8425 3.162C50.0938 3.76867 50.2195 4.43167 50.2195 5.151C50.2195 5.87033 50.0895 6.53333 49.8295 7.14C49.5781 7.74667 49.2271 8.27533 48.7765 8.726C48.3258 9.17667 47.7971 9.52767 47.1905 9.779C46.5838 10.0303 45.9295 10.156 45.2275 10.156ZM45.2275 8.752C45.7301 8.752 46.1895 8.661 46.6055 8.479C47.0301 8.297 47.3985 8.04567 47.7105 7.725C48.0225 7.39567 48.2651 7.01433 48.4385 6.581C48.6118 6.139 48.6985 5.66233 48.6985 5.151C48.6985 4.63967 48.6118 4.16733 48.4385 3.734C48.2651 3.30067 48.0225 2.91933 47.7105 2.59C47.3985 2.26067 47.0301 2.005 46.6055 1.823C46.1895 1.641 45.7301 1.55 45.2275 1.55C44.7248 1.55 44.2611 1.641 43.8365 1.823C43.4205 2.005 43.0565 2.26067 42.7445 2.59C42.4325 2.91933 42.1898 3.30067 42.0165 3.734C41.8518 4.16733 41.7695 4.63967 41.7695 5.151C41.7695 5.66233 41.8518 6.139 42.0165 6.581C42.1898 7.01433 42.4325 7.39567 42.7445 7.725C43.0565 8.04567 43.4248 8.297 43.8495 8.479C44.2741 8.661 44.7335 8.752 45.2275 8.752ZM52.1946 10V0.314999H55.7176C56.3676 0.314999 56.9396 0.436333 57.4336 0.679C57.9276 0.912999 58.3132 1.25967 58.5906 1.719C58.8766 2.16967 59.0196 2.71133 59.0196 3.344C59.0196 4.01133 58.8506 4.58333 58.5126 5.06C58.1832 5.53667 57.7369 5.88333 57.1736 6.1L59.4096 10H57.6676L55.2886 5.775L56.2896 6.36H53.7286V10H52.1946ZM53.7286 4.995H55.7436C56.0989 4.995 56.4066 4.92567 56.6666 4.787C56.9266 4.64833 57.1259 4.45767 57.2646 4.215C57.4119 3.96367 57.4856 3.669 57.4856 3.331C57.4856 2.993 57.4119 2.70267 57.2646 2.46C57.1259 2.20867 56.9266 2.018 56.6666 1.888C56.4066 1.74933 56.0989 1.68 55.7436 1.68H53.7286V4.995ZM62.4225 10V1.68H59.8485V0.314999H66.4785V1.68H63.9435V10H62.4225Z" fill="url(#paint0_linear_59_1029)"/>
<path d="M6.704 9.818L6.2936 10.73L6.30639 10.7356L6.704 9.818ZM5.378 8.869L6.11649 8.19473L5.378 8.869ZM4.572 7.491L4.18477 6.56902L3.33022 6.92793L3.62332 7.80723L4.572 7.491ZM5.872 6.945L6.80324 6.5806L6.42975 5.62612L5.48477 6.02302L5.872 6.945ZM6.899 8.323L6.31925 9.13779L6.899 8.323ZM9.369 8.648L9.74039 9.57648L9.75358 9.5712L9.76661 9.56556L9.369 8.648ZM9.967 8.18L9.16282 7.58561L9.15429 7.59715L9.1461 7.60894L9.967 8.18ZM9.889 6.646L10.611 5.95409V5.95409L9.889 6.646ZM9.005 6.152L8.70517 7.106L8.70793 7.10686L9.005 6.152ZM7.185 5.58L7.48483 4.626L7.48068 4.62471L7.185 5.58ZM5.521 4.553L4.74573 5.1847L4.75159 5.19176L5.521 4.553ZM5.352 1.485L6.18681 2.03562L6.19204 2.02753L5.352 1.485ZM6.457 0.51L6.01632 -0.387692L6.00979 -0.384427L6.457 0.51ZM9.668 0.471L9.26806 1.38754L9.2751 1.39061L9.28219 1.39358L9.668 0.471ZM10.89 1.303L10.1654 1.99227L10.1742 2.00132L10.89 1.303ZM11.644 2.538L12.0458 3.45373L12.8812 3.08719L12.5927 2.22177L11.644 2.538ZM10.37 3.097L9.43302 3.44638L9.80275 4.43792L10.7718 4.01273L10.37 3.097ZM9.473 1.914L8.90191 2.73495L8.91021 2.7406L9.473 1.914ZM7.237 1.667L7.63092 2.58614L7.64461 2.58028L7.65811 2.57401L7.237 1.667ZM6.665 2.135L5.83291 1.58027L5.82739 1.58873L6.665 2.135ZM6.769 3.669L5.99627 4.30374L5.99627 4.30374L6.769 3.669ZM7.679 4.215L7.97978 3.26131L7.97215 3.2589L7.96448 3.25661L7.679 4.215ZM9.369 4.748L9.0682 5.70175L9.07869 5.70493L9.369 4.748ZM11.111 5.762L10.3611 6.42365L10.3677 6.43096L11.111 5.762ZM11.267 8.817L10.443 8.25047L10.4389 8.25636L10.4349 8.2623L11.267 8.817ZM10.11 9.805L10.5381 10.7087L10.5445 10.7057L10.5509 10.7026L10.11 9.805ZM8.394 9.156C7.91434 9.156 7.48744 9.06764 7.10161 8.90044L6.30639 10.7356C6.96056 11.019 7.66033 11.156 8.394 11.156V9.156ZM7.11436 8.90608C6.71168 8.72487 6.38335 8.48701 6.11649 8.19473L4.63951 9.54327C5.10065 10.0483 5.65632 10.4431 6.29364 10.7299L7.11436 8.90608ZM6.11649 8.19473C5.84831 7.90101 5.65047 7.56413 5.52068 7.17477L3.62332 7.80723C3.8402 8.45787 4.17969 9.03965 4.63951 9.54327L6.11649 8.19473ZM4.95923 8.41298L6.25923 7.86698L5.48477 6.02302L4.18477 6.56902L4.95923 8.41298ZM4.94076 7.3094C5.23395 8.05868 5.68588 8.68713 6.31925 9.13779L7.47875 7.50821C7.21079 7.31754 6.97805 7.02732 6.80324 6.5806L4.94076 7.3094ZM6.31925 9.13779C6.9506 9.58702 7.67627 9.804 8.459 9.804V7.804C8.06306 7.804 7.74874 7.70031 7.47875 7.50821L6.31925 9.13779ZM8.459 9.804C8.90361 9.804 9.33783 9.7375 9.74039 9.57648L8.99761 7.71952C8.88017 7.7665 8.70773 7.804 8.459 7.804V9.804ZM9.76661 9.56556C10.1682 9.39152 10.5264 9.12696 10.7879 8.75106L9.1461 7.60894C9.13025 7.63171 9.08976 7.67915 8.97139 7.73044L9.76661 9.56556ZM10.7712 8.77439C11.0522 8.39421 11.188 7.9538 11.188 7.491H9.188C9.188 7.5482 9.17648 7.56713 9.16282 7.58561L10.7712 8.77439ZM11.188 7.491C11.188 6.94125 11.0283 6.38951 10.611 5.95409L9.16701 7.3379C9.16721 7.33811 9.16668 7.3375 9.16634 7.33696C9.16607 7.33651 9.16781 7.33915 9.17053 7.34683C9.17604 7.36242 9.188 7.40602 9.188 7.491H11.188ZM10.611 5.95409C10.2558 5.58344 9.79006 5.34896 9.30207 5.19714L8.70793 7.10686C8.99994 7.1977 9.12355 7.29256 9.16701 7.3379L10.611 5.95409ZM9.30483 5.19801L7.48483 4.62601L6.88517 6.53399L8.70517 7.10599L9.30483 5.19801ZM7.48068 4.62471C6.8871 4.44099 6.51776 4.1881 6.29041 3.91424L4.75159 5.19176C5.2869 5.83657 6.0269 6.26835 6.88932 6.53529L7.48068 4.62471ZM6.29624 3.92133C6.0655 3.63815 5.949 3.31725 5.949 2.915H3.949C3.949 3.76075 4.21383 4.53185 4.74577 5.18467L6.29624 3.92133ZM5.949 2.915C5.949 2.54064 6.03843 2.2605 6.18677 2.03559L4.51723 0.934405C4.12824 1.52417 3.949 2.19736 3.949 2.915H5.949ZM6.19204 2.02753C6.35805 1.77048 6.58686 1.56311 6.90421 1.40443L6.00979 -0.384427C5.39114 -0.0751054 4.88328 0.367521 4.51196 0.942474L6.19204 2.02753ZM6.89767 1.40767C7.21885 1.25 7.60627 1.159 8.082 1.159V-0.841C7.34439 -0.841 6.64848 -0.697999 6.01633 -0.387668L6.89767 1.40767ZM8.082 1.159C8.54111 1.159 8.93149 1.24067 9.26806 1.38754L10.0679 -0.44554C9.45118 -0.714673 8.78423 -0.841 8.082 -0.841V1.159ZM9.28219 1.39358C9.63797 1.54236 9.92804 1.74264 10.1654 1.99221L11.6146 0.613786C11.176 0.152691 10.6514 -0.201692 10.0538 -0.45158L9.28219 1.39358ZM10.1742 2.00132C10.4161 2.24923 10.5874 2.53049 10.6953 2.85423L12.5927 2.22177C12.3886 1.60951 12.0573 1.06744 11.6058 0.604676L10.1742 2.00132ZM11.2422 1.62227L9.9682 2.18127L10.7718 4.01273L12.0458 3.45373L11.2422 1.62227ZM11.307 2.74762C11.0521 2.06412 10.6325 1.49369 10.0358 1.0874L8.91021 2.7406C9.12814 2.88898 9.30655 3.10721 9.43302 3.44638L11.307 2.74762ZM10.0441 1.09309C9.46286 0.688775 8.79586 0.497999 8.082 0.497999V2.498C8.42547 2.498 8.68581 2.58456 8.90194 2.7349L10.0441 1.09309ZM8.082 0.497999C7.64432 0.497999 7.21407 0.575121 6.81589 0.759991L7.65811 2.57401C7.74526 2.53355 7.87834 2.498 8.082 2.498V0.497999ZM6.84308 0.747855C6.43263 0.923763 6.0854 1.20163 5.83295 1.5803L7.49705 2.6897C7.52194 2.65237 7.55604 2.61824 7.63092 2.58614L6.84308 0.747855ZM5.82739 1.58873C5.57816 1.97089 5.47 2.40015 5.47 2.837H7.47C7.47 2.73652 7.49184 2.69778 7.50261 2.68127L5.82739 1.58873ZM5.47 2.837C5.47 3.38216 5.65104 3.88346 5.99627 4.30374L7.54173 3.03426C7.48829 2.96921 7.47 2.91584 7.47 2.837H5.47ZM5.99627 4.30374C6.35969 4.74616 6.86105 5.01478 7.39352 5.17339L7.96448 3.25661C7.68228 3.17256 7.57697 3.07717 7.54173 3.03426L5.99627 4.30374ZM7.37822 5.16869L9.06822 5.70169L9.66978 3.79431L7.97978 3.26131L7.37822 5.16869ZM9.07869 5.70493C9.73533 5.90414 10.1312 6.163 10.3612 6.42362L11.8608 5.10038C11.3108 4.477 10.5453 4.05986 9.65931 3.79107L9.07869 5.70493ZM10.3677 6.43096C10.5731 6.65914 10.696 6.95345 10.696 7.387H12.696C12.696 6.52055 12.4289 5.73153 11.8543 5.09304L10.3677 6.43096ZM10.696 7.387C10.696 7.73577 10.6068 8.01214 10.443 8.25047L12.091 9.38353C12.4992 8.78986 12.696 8.11289 12.696 7.387H10.696ZM10.4349 8.2623C10.2651 8.51702 10.0212 8.7345 9.6691 8.90745L10.5509 10.7026C11.1868 10.3902 11.7142 9.94898 12.0991 9.3717L10.4349 8.2623ZM9.68191 8.90126C9.34468 9.06101 8.92363 9.156 8.394 9.156V11.156C9.16437 11.156 9.88732 11.017 10.5381 10.7087L9.68191 8.90126ZM15.381 9.701L14.9012 10.5784L14.9069 10.5815L15.381 9.701ZM14.068 8.453L13.2067 8.96129L13.213 8.97161L14.068 8.453ZM13.6 0.314999V-0.685001H12.6V0.314999H13.6ZM15.134 0.314999H16.134V-0.685001H15.134V0.314999ZM15.407 7.712L14.5318 8.19569L14.5366 8.20441L14.5416 8.21304L15.407 7.712ZM16.174 8.479L15.6804 9.34874L15.6903 9.35424L16.174 8.479ZM18.436 8.479L17.9523 7.6037L17.9424 7.60931L18.436 8.479ZM19.203 7.712L18.3376 7.21096L18.3326 7.21959L18.3278 7.22831L19.203 7.712ZM19.489 0.314999V-0.685001H18.489V0.314999H19.489ZM21.01 0.314999H22.01V-0.685001H21.01V0.314999ZM20.542 8.453L21.4032 8.96125L20.542 8.453ZM19.229 9.701L18.7549 8.82051L18.7492 8.82363L19.229 9.701ZM17.305 9.156C16.7303 9.156 16.2554 9.03607 15.8551 8.82053L14.9069 10.5815C15.6333 10.9726 16.441 11.156 17.305 11.156V9.156ZM15.8608 8.82363C15.457 8.60278 15.1502 8.30902 14.923 7.93439L13.213 8.97161C13.6271 9.65431 14.1957 10.1926 14.9012 10.5784L15.8608 8.82363ZM14.9292 7.94475C14.7171 7.58532 14.6 7.16184 14.6 6.646H12.6C12.6 7.48216 12.7949 8.26334 13.2068 8.96125L14.9292 7.94475ZM14.6 6.646V0.314999H12.6V6.646H14.6ZM13.6 1.315H15.134V-0.685001H13.6V1.315ZM14.134 0.314999V6.581H16.134V0.314999H14.134ZM14.134 6.581C14.134 7.15275 14.2579 7.70006 14.5318 8.19569L16.2822 7.22831C16.1921 7.06527 16.134 6.85858 16.134 6.581H14.134ZM14.5416 8.21304C14.8182 8.69093 15.2001 9.07611 15.6804 9.34869L16.6676 7.60931C16.5065 7.51789 16.3771 7.39173 16.2724 7.21096L14.5416 8.21304ZM15.6903 9.35424C16.1859 9.62814 16.7332 9.752 17.305 9.752V7.752C17.0274 7.752 16.8207 7.69386 16.6577 7.60376L15.6903 9.35424ZM17.305 9.752C17.8809 9.752 18.434 9.62999 18.9296 9.34869L17.9424 7.60931C17.7967 7.69201 17.5958 7.752 17.305 7.752V9.752ZM18.9197 9.35424C19.4138 9.08118 19.8052 8.68979 20.0782 8.19569L18.3278 7.22831C18.2368 7.39287 18.1169 7.51282 17.9523 7.60376L18.9197 9.35424ZM20.0684 8.21304C20.3571 7.71434 20.489 7.16074 20.489 6.581H18.489C18.489 6.8506 18.4302 7.051 18.3376 7.21096L20.0684 8.21304ZM20.489 6.581V0.314999H18.489V6.581H20.489ZM19.489 1.315H21.01V-0.685001H19.489V1.315ZM20.01 0.314999V6.646H22.01V0.314999H20.01ZM20.01 6.646C20.01 7.16184 19.8929 7.58532 19.6808 7.94475L21.4032 8.96125C21.8151 8.26334 22.01 7.48216 22.01 6.646H20.01ZM19.6808 7.94475C19.4655 8.30956 19.1648 8.59983 18.7549 8.82053L19.7031 10.5815C20.4199 10.1955 20.9945 9.65377 21.4032 8.96125L19.6808 7.94475ZM18.7492 8.82363C18.3626 9.03504 17.8909 9.156 17.305 9.156V11.156C18.175 11.156 18.986 10.9736 19.7088 10.5784L18.7492 8.82363ZM23.1929 10H22.1929V11H23.1929V10ZM23.1929 0.314999V-0.685001H22.1929V0.314999H23.1929ZM28.4319 0.679L27.991 1.57655L28.0004 1.58117L28.0098 1.58558L28.4319 0.679ZM29.6019 1.719L28.7458 2.23589L28.7502 2.2431L29.6019 1.719ZM29.5889 4.956L28.7445 4.42012L28.7372 4.4319L29.5889 4.956ZM28.4319 5.996L27.991 5.09844L27.991 5.09845L28.4319 5.996ZM24.7269 6.36V5.36H23.7269V6.36H24.7269ZM24.7269 10V11H25.7269V10H24.7269ZM24.7269 4.995H23.7269V5.995H24.7269V4.995ZM28.2759 4.215L29.1307 4.73398L29.1347 4.72738L29.1386 4.72072L28.2759 4.215ZM28.2759 2.46L27.4132 2.96572L27.4171 2.97238L27.4211 2.97898L28.2759 2.46ZM27.6649 1.888L27.1943 2.77035L27.2059 2.77654L27.2177 2.78243L27.6649 1.888ZM24.7269 1.68V0.679999H23.7269V1.68H24.7269ZM24.1929 10V0.314999H22.1929V10H24.1929ZM23.1929 1.315H26.7159V-0.685001H23.1929V1.315ZM26.7159 1.315C27.2405 1.315 27.6569 1.41244 27.991 1.57655L28.8728 -0.218554C28.2189 -0.539773 27.4913 -0.685001 26.7159 -0.685001V1.315ZM28.0098 1.58558C28.3387 1.73867 28.5748 1.95261 28.7458 2.23587L30.4579 1.20213C30.0743 0.566724 29.5304 0.0873332 28.8539 -0.227582L28.0098 1.58558ZM28.7502 2.2431C28.9131 2.50773 29.0179 2.85991 29.0179 3.344H31.0179C31.0179 2.56276 30.8453 1.8316 30.4535 1.1949L28.7502 2.2431ZM29.0179 3.344C29.0179 3.8109 28.9127 4.15524 28.7445 4.42017L30.4332 5.49183C30.8371 4.85543 31.0179 4.1251 31.0179 3.344H29.0179ZM28.7372 4.4319C28.5629 4.71516 28.3227 4.93549 27.991 5.09844L28.8728 6.89355C29.5291 6.57117 30.0602 6.09817 30.4405 5.4801L28.7372 4.4319ZM27.991 5.09845C27.6569 5.26256 27.2405 5.36 26.7159 5.36V7.36C27.4913 7.36 28.2189 7.21477 28.8728 6.89355L27.991 5.09845ZM26.7159 5.36H24.7269V7.36H26.7159V5.36ZM23.7269 6.36V10H25.7269V6.36H23.7269ZM24.7269 9H23.1929V11H24.7269V9ZM24.7269 5.995H26.7549V3.995H24.7269V5.995ZM26.7549 5.995C27.2367 5.995 27.7071 5.89784 28.1355 5.66935L27.1943 3.90465C27.1027 3.95349 26.9664 3.995 26.7549 3.995V5.995ZM28.1355 5.66935C28.5475 5.44958 28.8866 5.13603 29.1307 4.73398L27.4211 3.69602C27.3705 3.7793 27.3022 3.84708 27.1943 3.90465L28.1355 5.66935ZM29.1386 4.72072C29.3894 4.29291 29.4969 3.81794 29.4969 3.331H27.4969C27.4969 3.52006 27.4571 3.63442 27.4132 3.70928L29.1386 4.72072ZM29.4969 3.331C29.4969 2.84514 29.3897 2.36768 29.1307 1.94102L27.4211 2.97898C27.4567 3.03765 27.4969 3.14086 27.4969 3.331H29.4969ZM29.1386 1.95428C28.8935 1.53627 28.5457 1.21038 28.1121 0.993572L27.2177 2.78243C27.304 2.82562 27.3635 2.88106 27.4132 2.96572L29.1386 1.95428ZM28.1355 1.00565C27.7071 0.777161 27.2367 0.679999 26.7549 0.679999V2.68C26.9664 2.68 27.1027 2.7215 27.1943 2.77035L28.1355 1.00565ZM26.7549 0.679999H24.7269V2.68H26.7549V0.679999ZM23.7269 1.68V4.995H25.7269V1.68H23.7269ZM31.8572 10H30.8572V11H31.8572V10ZM31.8572 0.314999V-0.685001H30.8572V0.314999H31.8572ZM37.0962 0.679L36.6553 1.57655L36.6647 1.58117L36.6741 1.58558L37.0962 0.679ZM38.2662 1.719L37.4101 2.23589L37.4145 2.2431L38.2662 1.719ZM38.2532 4.956L37.4088 4.42012L37.4015 4.4319L38.2532 4.956ZM37.0962 5.996L36.6553 5.09844V5.09845L37.0962 5.996ZM33.3912 6.36V5.36H32.3912V6.36H33.3912ZM33.3912 10V11H34.3912V10H33.3912ZM33.3912 4.995H32.3912V5.995H33.3912V4.995ZM36.9402 4.215L37.795 4.73398L37.799 4.72738L37.8029 4.72072L36.9402 4.215ZM36.9402 2.46L36.0775 2.96572L36.0814 2.97238L36.0854 2.97898L36.9402 2.46ZM36.3292 1.888L35.8586 2.77035L35.8702 2.77654L35.882 2.78243L36.3292 1.888ZM33.3912 1.68V0.679999H32.3912V1.68H33.3912ZM32.8572 10V0.314999H30.8572V10H32.8572ZM31.8572 1.315H35.3802V-0.685001H31.8572V1.315ZM35.3802 1.315C35.9048 1.315 36.3212 1.41244 36.6553 1.57655L37.5371 -0.218554C36.8832 -0.539773 36.1556 -0.685001 35.3802 -0.685001V1.315ZM36.6741 1.58558C37.003 1.73867 37.2391 1.95261 37.4101 2.23587L39.1222 1.20213C38.7386 0.566724 38.1947 0.0873332 37.5182 -0.227582L36.6741 1.58558ZM37.4145 2.2431C37.5774 2.50773 37.6822 2.85991 37.6822 3.344H39.6822C39.6822 2.56276 39.5096 1.8316 39.1178 1.1949L37.4145 2.2431ZM37.6822 3.344C37.6822 3.8109 37.577 4.15524 37.4088 4.42017L39.0975 5.49183C39.5014 4.85543 39.6822 4.1251 39.6822 3.344H37.6822ZM37.4015 4.4319C37.2272 4.71516 36.987 4.93549 36.6553 5.09844L37.5371 6.89355C38.1934 6.57117 38.7245 6.09817 39.1048 5.4801L37.4015 4.4319ZM36.6553 5.09845C36.3212 5.26256 35.9048 5.36 35.3802 5.36V7.36C36.1556 7.36 36.8832 7.21477 37.5371 6.89355L36.6553 5.09845ZM35.3802 5.36H33.3912V7.36H35.3802V5.36ZM32.3912 6.36V10H34.3912V6.36H32.3912ZM33.3912 9H31.8572V11H33.3912V9ZM33.3912 5.995H35.4192V3.995H33.3912V5.995ZM35.4192 5.995C35.901 5.995 36.3713 5.89784 36.7998 5.66935L35.8586 3.90465C35.767 3.95349 35.6307 3.995 35.4192 3.995V5.995ZM36.7998 5.66935C37.2118 5.44958 37.5509 5.13603 37.795 4.73398L36.0854 3.69602C36.0348 3.7793 35.9665 3.84708 35.8586 3.90465L36.7998 5.66935ZM37.8029 4.72072C38.0537 4.29291 38.1612 3.81794 38.1612 3.331H36.1612C36.1612 3.52006 36.1214 3.63442 36.0775 3.70928L37.8029 4.72072ZM38.1612 3.331C38.1612 2.84514 38.054 2.36768 37.795 1.94102L36.0854 2.97898C36.121 3.03765 36.1612 3.14086 36.1612 3.331H38.1612ZM37.8029 1.95428C37.5578 1.53627 37.21 1.21038 36.7764 0.993572L35.882 2.78243C35.9683 2.82562 36.0278 2.88106 36.0775 2.96572L37.8029 1.95428ZM36.7998 1.00565C36.3714 0.777161 35.901 0.679999 35.4192 0.679999V2.68C35.6307 2.68 35.767 2.7215 35.8586 2.77035L36.7998 1.00565ZM35.4192 0.679999H33.3912V2.68H35.4192V0.679999ZM32.3912 1.68V4.995H34.3912V1.68H32.3912ZM43.2645 9.779L42.877 10.7009L42.8817 10.7029L43.2645 9.779ZM41.6785 8.726L40.9713 9.43314L40.9781 9.43981L41.6785 8.726ZM40.6125 7.14L39.6885 7.52277L39.6933 7.53392L40.6125 7.14ZM40.6125 3.162L39.6913 2.77277L39.6886 2.77926L40.6125 3.162ZM41.6785 1.576L42.3787 2.28997L42.3856 2.28311L41.6785 1.576ZM43.2645 0.535999L43.6359 1.46455L43.6472 1.45986L43.2645 0.535999ZM47.1905 0.535999L46.803 1.45789L46.811 1.46125L46.8191 1.46448L47.1905 0.535999ZM48.7765 1.576L48.0693 2.28314L48.0761 2.28981L48.7765 1.576ZM49.8295 7.14L48.9103 6.74605L48.9056 6.75726L49.8295 7.14ZM48.7765 8.726L48.0694 8.01889L48.7765 8.726ZM47.1905 9.779L47.5732 10.7029L47.1905 9.779ZM46.6055 8.479L46.2115 7.55983L46.2047 7.56284L46.6055 8.479ZM47.7105 7.725L48.4273 8.42242L48.4364 8.41274L47.7105 7.725ZM48.4385 6.581L49.367 6.9524L49.3694 6.94609L48.4385 6.581ZM48.4385 3.734L49.3669 3.36261V3.36261L48.4385 3.734ZM47.7105 2.59L48.4364 1.90226V1.90225L47.7105 2.59ZM46.6055 1.823L46.2046 2.73918L46.2116 2.74215L46.6055 1.823ZM43.8365 1.823L43.4425 0.903829L43.4356 0.906842L43.8365 1.823ZM42.7445 2.59L42.0185 1.90225V1.90226L42.7445 2.59ZM42.0165 3.734L41.088 3.36261L41.0848 3.37067L41.0817 3.37878L42.0165 3.734ZM42.0165 6.581L41.0794 6.93011L41.0836 6.9413L41.088 6.95239L42.0165 6.581ZM42.7445 7.725L42.0185 8.41281L42.0277 8.42235L42.7445 7.725ZM43.8495 8.479L43.4556 9.39814L43.8495 8.479ZM45.2275 9.156C44.6476 9.156 44.1243 9.05281 43.6472 8.85514L42.8817 10.7029C43.6179 11.0079 44.4033 11.156 45.2275 11.156V9.156ZM43.6519 8.85711C43.1695 8.65434 42.7472 8.37362 42.3788 8.01219L40.9781 9.43981C41.5284 9.97971 42.1635 10.401 42.877 10.7009L43.6519 8.85711ZM42.3856 8.01889C42.0281 7.66139 41.7433 7.24006 41.5316 6.74608L39.6933 7.53392C40.0016 8.25328 40.4275 8.88928 40.9714 9.43311L42.3856 8.01889ZM41.5363 6.75726C41.3399 6.28305 41.2355 5.75159 41.2355 5.151H39.2355C39.2355 5.98908 39.3824 6.78361 39.6886 7.52274L41.5363 6.75726ZM41.2355 5.151C41.2355 4.55041 41.3399 4.01895 41.5363 3.54474L39.6886 2.77926C39.3824 3.51839 39.2355 4.31292 39.2355 5.151H41.2355ZM41.5336 3.55122C41.7452 3.05046 42.0278 2.63405 42.3787 2.28994L40.9783 0.862062C40.4278 1.40195 39.9997 2.04287 39.6913 2.77278L41.5336 3.55122ZM42.3856 2.28311C42.738 1.93064 43.1517 1.65815 43.6359 1.46448L42.8931 -0.392477C42.1639 -0.100813 41.5202 0.320022 40.9714 0.868894L42.3856 2.28311ZM43.6472 1.45986C44.1243 1.26219 44.6476 1.159 45.2275 1.159V-0.841C44.4033 -0.841 43.6179 -0.692856 42.8817 -0.387857L43.6472 1.45986ZM45.2275 1.159C45.8179 1.159 46.3389 1.26285 46.803 1.45789L47.5779 -0.385887C46.846 -0.693512 46.0584 -0.841 45.2275 -0.841V1.159ZM46.8191 1.46448C47.3033 1.65815 47.7169 1.93064 48.0694 2.28311L49.4836 0.868894C48.9347 0.320022 48.291 -0.100813 47.5619 -0.392477L46.8191 1.46448ZM48.0761 2.28981C48.4375 2.64432 48.7177 3.05973 48.9186 3.54474L50.7663 2.77926C50.4646 2.05094 50.0342 1.40902 49.4768 0.862191L48.0761 2.28981ZM48.9186 3.54474C49.1151 4.01895 49.2195 4.55041 49.2195 5.151H51.2195C51.2195 4.31292 51.0725 3.51839 50.7663 2.77926L48.9186 3.54474ZM49.2195 5.151C49.2195 5.74718 49.1123 6.27469 48.9103 6.74608L50.7486 7.53392C51.0666 6.79197 51.2195 5.99349 51.2195 5.151H49.2195ZM48.9056 6.75726C48.703 7.24638 48.4244 7.6639 48.0694 8.01889L49.4836 9.43311C50.0299 8.88676 50.4533 8.24695 50.7533 7.52274L48.9056 6.75726ZM48.0694 8.01889C47.7144 8.37388 47.2969 8.65251 46.8077 8.85514L47.5732 10.7029C48.2974 10.4028 48.9372 9.97945 49.4836 9.43311L48.0694 8.01889ZM46.8077 8.85514C46.3306 9.05281 45.8073 9.156 45.2275 9.156V11.156C46.0516 11.156 46.837 11.0079 47.5732 10.7029L46.8077 8.85514ZM45.2275 9.752C45.8533 9.752 46.451 9.63811 47.0063 9.39516L46.2047 7.56284C45.928 7.68389 45.607 7.752 45.2275 7.752V9.752ZM46.9994 9.39814C47.5412 9.16595 48.0202 8.84061 48.4272 8.42235L46.9937 7.02765C46.7767 7.25072 46.5191 7.42805 46.2116 7.55985L46.9994 9.39814ZM48.4364 8.41274C48.8378 7.98904 49.1481 7.49958 49.3669 6.95239L47.51 6.20961C47.3822 6.52909 47.2071 6.80229 46.9845 7.03726L48.4364 8.41274ZM49.3694 6.94609C49.5918 6.37908 49.6985 5.77758 49.6985 5.151H47.6985C47.6985 5.54708 47.6318 5.89892 47.5075 6.21591L49.3694 6.94609ZM49.6985 5.151C49.6985 4.52465 49.5919 3.92489 49.3669 3.36261L47.51 4.10539C47.6317 4.40978 47.6985 4.75468 47.6985 5.151H49.6985ZM49.3669 3.36261C49.1481 2.81542 48.8378 2.32596 48.4364 1.90226L46.9845 3.27774C47.2071 3.51271 47.3822 3.78591 47.51 4.10539L49.3669 3.36261ZM48.4364 1.90225C48.0289 1.47211 47.547 1.13853 46.9994 0.903854L46.2116 2.74215C46.5133 2.87147 46.768 3.04923 46.9845 3.27774L48.4364 1.90225ZM47.0063 0.906843C46.451 0.663892 45.8533 0.55 45.2275 0.55V2.55C45.607 2.55 45.928 2.61811 46.2047 2.73916L47.0063 0.906843ZM45.2275 0.55C44.6014 0.55 44.0023 0.663969 43.4426 0.903855L44.2304 2.74214C44.52 2.61803 44.8482 2.55 45.2275 2.55V0.55ZM43.4356 0.906842C42.8972 1.14241 42.4226 1.47571 42.0185 1.90225L43.4704 3.27774C43.6903 3.04562 43.9437 2.86759 44.2373 2.73916L43.4356 0.906842ZM42.0185 1.90226C41.6171 2.32595 41.3069 2.81542 41.088 3.36261L42.9449 4.10539C43.0727 3.78591 43.2478 3.51271 43.4704 3.27774L42.0185 1.90226ZM41.0817 3.37878C40.8697 3.9367 40.7695 4.53078 40.7695 5.151H42.7695C42.7695 4.74856 42.8339 4.39796 42.9513 4.08922L41.0817 3.37878ZM40.7695 5.151C40.7695 5.77147 40.8697 6.36737 41.0794 6.93011L42.9536 6.23189C42.8339 5.91063 42.7695 5.55319 42.7695 5.151H40.7695ZM41.088 6.95239C41.3069 7.49958 41.6171 7.98905 42.0185 8.41274L43.4704 7.03726C43.2478 6.80229 43.0727 6.52909 42.9449 6.20961L41.088 6.95239ZM42.0277 8.42235C42.4347 8.84061 42.9138 9.16595 43.4556 9.39814L44.2434 7.55985C43.9358 7.42805 43.6782 7.25072 43.4612 7.02765L42.0277 8.42235ZM43.4556 9.39814C44.0131 9.63711 44.6075 9.752 45.2275 9.752V7.752C44.8594 7.752 44.5351 7.68489 44.2434 7.55985L43.4556 9.39814ZM52.1946 10H51.1946V11H52.1946V10ZM52.1946 0.314999V-0.685001H51.1946V0.314999H52.1946ZM57.4336 0.679L56.9926 1.57655L56.999 1.57969L57.0055 1.58274L57.4336 0.679ZM58.5906 1.719L57.7345 2.23587L57.7403 2.24541L57.7462 2.25482L58.5906 1.719ZM58.5126 5.06L57.6968 4.48153L57.6898 4.49157L58.5126 5.06ZM57.1736 6.1L56.8146 5.16665L55.7258 5.58541L56.306 6.59738L57.1736 6.1ZM59.4096 10V11H61.1356L60.2771 9.50262L59.4096 10ZM57.6676 10L56.7962 10.4906L57.083 11H57.6676V10ZM55.2886 5.775L55.7931 4.91163L52.606 3.04901L54.4172 6.26564L55.2886 5.775ZM56.2896 6.36V7.36H59.9826L56.7941 5.49663L56.2896 6.36ZM53.7286 6.36V5.36H52.7286V6.36H53.7286ZM53.7286 10V11H54.7286V10H53.7286ZM53.7286 4.995H52.7286V5.995H53.7286V4.995ZM57.2646 4.215L56.4018 3.70925L56.3963 3.71886L57.2646 4.215ZM57.2646 2.46L56.389 2.94308L56.399 2.96124L56.4098 2.97898L57.2646 2.46ZM56.6666 1.888L56.196 2.77035L56.2076 2.77654L56.2193 2.78243L56.6666 1.888ZM53.7286 1.68V0.679999H52.7286V1.68H53.7286ZM53.1946 10V0.314999H51.1946V10H53.1946ZM52.1946 1.315H55.7176V-0.685001H52.1946V1.315ZM55.7176 1.315C56.2422 1.315 56.6586 1.41244 56.9926 1.57655L57.8745 -0.218554C57.2206 -0.539773 56.4929 -0.685001 55.7176 -0.685001V1.315ZM57.0055 1.58274C57.3254 1.7343 57.5607 1.94805 57.7345 2.23587L59.4466 1.20213C59.0657 0.571278 58.5297 0.0916977 57.8616 -0.224738L57.0055 1.58274ZM57.7462 2.25482C57.913 2.51762 58.0196 2.86545 58.0196 3.344H60.0196C60.0196 2.55722 59.8401 1.82171 59.4349 1.18317L57.7462 2.25482ZM58.0196 3.344C58.0196 3.83462 57.8984 4.19727 57.6968 4.48157L59.3283 5.63843C59.8027 4.9694 60.0196 4.18805 60.0196 3.344H58.0196ZM57.6898 4.49157C57.4798 4.79554 57.1984 5.01901 56.8146 5.16665L57.5325 7.03335C58.2753 6.74765 58.8866 6.27779 59.3353 5.62843L57.6898 4.49157ZM56.306 6.59738L58.542 10.4974L60.2771 9.50262L58.0411 5.60262L56.306 6.59738ZM59.4096 9H57.6676V11H59.4096V9ZM58.5389 9.50936L56.1599 5.28436L54.4172 6.26564L56.7962 10.4906L58.5389 9.50936ZM54.784 6.63837L55.785 7.22337L56.7941 5.49663L55.7931 4.91163L54.784 6.63837ZM56.2896 5.36H53.7286V7.36H56.2896V5.36ZM52.7286 6.36V10H54.7286V6.36H52.7286ZM53.7286 9H52.1946V11H53.7286V9ZM53.7286 5.995H55.7436V3.995H53.7286V5.995ZM55.7436 5.995C56.2295 5.995 56.7053 5.89964 57.1371 5.66935L56.196 3.90465C56.1078 3.95169 55.9683 3.995 55.7436 3.995V5.995ZM57.1371 5.66935C57.554 5.44704 57.8954 5.12651 58.1328 4.71114L56.3963 3.71886C56.3563 3.78882 56.2991 3.84963 56.196 3.90465L57.1371 5.66935ZM58.1273 4.72072C58.378 4.29291 58.4856 3.81794 58.4856 3.331H56.4856C56.4856 3.52006 56.4457 3.63442 56.4019 3.70928L58.1273 4.72072ZM58.4856 3.331C58.4856 2.84514 58.3784 2.36768 58.1193 1.94102L56.4098 2.97898C56.4454 3.03765 56.4856 3.14086 56.4856 3.331H58.4856ZM58.1401 1.97692C57.9023 1.54587 57.5525 1.21292 57.1138 0.993572L56.2193 2.78243C56.3006 2.82308 56.3495 2.87146 56.389 2.94308L58.1401 1.97692ZM57.1371 1.00565C56.7053 0.775354 56.2295 0.679999 55.7436 0.679999V2.68C55.9683 2.68 56.1078 2.72331 56.196 2.77035L57.1371 1.00565ZM55.7436 0.679999H53.7286V2.68H55.7436V0.679999ZM52.7286 1.68V4.995H54.7286V1.68H52.7286ZM62.4225 10H61.4225V11H62.4225V10ZM62.4225 1.68H63.4225V0.679999H62.4225V1.68ZM59.8485 1.68H58.8485V2.68H59.8485V1.68ZM59.8485 0.314999V-0.685001H58.8485V0.314999H59.8485ZM66.4785 0.314999H67.4785V-0.685001H66.4785V0.314999ZM66.4785 1.68V2.68H67.4785V1.68H66.4785ZM63.9435 1.68V0.679999H62.9435V1.68H63.9435ZM63.9435 10V11H64.9435V10H63.9435ZM63.4225 10V1.68H61.4225V10H63.4225ZM62.4225 0.679999H59.8485V2.68H62.4225V0.679999ZM60.8485 1.68V0.314999H58.8485V1.68H60.8485ZM59.8485 1.315H66.4785V-0.685001H59.8485V1.315ZM65.4785 0.314999V1.68H67.4785V0.314999H65.4785ZM66.4785 0.679999H63.9435V2.68H66.4785V0.679999ZM62.9435 1.68V10H64.9435V1.68H62.9435ZM63.9435 9H62.4225V11H63.9435V9Z" fill="black" mask="url(#path-1-outside-1_59_1029)"/>
</g>
<defs>
<filter id="filter0_d_59_1029" x="0.572021" y="0.158997" width="69.9065" height="17.997" filterUnits="userSpaceOnUse" color-interpolation-filters="sRGB">
<feFlood flood-opacity="0" result="BackgroundImageFix"/>
<feColorMatrix in="SourceAlpha" type="matrix" values="0 0 0 0 0 0 0 0 0 0 0 0 0 0 0 0 0 0 127 0" result="hardAlpha"/>
<feOffset dy="4"/>
<feGaussianBlur stdDeviation="2"/>
<feComposite in2="hardAlpha" operator="out"/>
<feColorMatrix type="matrix" values="0 0 0 0 0 0 0 0 0 0 0 0 0 0 0 0 0 0 0.25 0"/>
<feBlend mode="normal" in2="BackgroundImageFix" result="effect1_dropShadow_59_1029"/>
<feBlend mode="normal" in="SourceGraphic" in2="effect1_dropShadow_59_1029" result="shape"/>
</filter>
<linearGradient id="paint0_linear_59_1029" x1="4" y1="4.2125" x2="69.8977" y2="5.94757" gradientUnits="userSpaceOnUse">
<stop stop-color="#692CD4"/>
<stop offset="1" stop-color="#E11286"/>
</linearGradient>
</defs>
</svg>
