<svg width="24" height="24" viewBox="0 0 24 24" fill="none" xmlns="http://www.w3.org/2000/svg">
<path d="M11 13H13C14.8565 13 16.637 13.7375 17.9497 15.0503C19.2625 16.363 20 18.1435 20 20C20 20.2652 19.8946 20.5196 19.7071 20.7071C19.5196 20.8946 19.2652 21 19 21H5C4.73478 21 4.48043 20.8946 4.29289 20.7071C4.10536 20.5196 4 20.2652 4 20C4 18.1435 4.7375 16.363 6.05025 15.0503C7.36301 13.7375 9.14348 13 11 13V13Z" stroke="#6B23E0" stroke-width="1.5" stroke-linecap="round" stroke-linejoin="round"/>
<path d="M12 13C14.7614 13 17 10.7614 17 8C17 5.23858 14.7614 3 12 3C9.23858 3 7 5.23858 7 8C7 10.7614 9.23858 13 12 13Z" stroke="#E21186" stroke-width="1.5" stroke-linecap="round" stroke-linejoin="round"/>
</svg>
